<svg width="569" height="427" viewBox="0 0 569 427" fill="none" xmlns="http://www.w3.org/2000/svg">
<path d="M313.141 245.982C313.151 241.571 316.729 238 321.141 238H561C565.418 238 569 241.582 569 246V300.99C569 305.412 565.412 308.995 560.99 308.99L321.008 308.685C316.586 308.679 313.008 305.088 313.018 300.667L313.141 245.982Z" fill="#FF5555"/>
<g filter="url(#filter0_f_45_452)">
<path d="M333.74 276.402L369.882 239.125L385.356 254.203L344.417 296.216L333.74 276.402Z" fill="black"/>
</g>
<path d="M412.808 252.991L413.792 272.55L432.697 267.442L414.399 274.421L425.1 290.823L412.808 275.577L400.516 290.823L411.217 274.421L392.919 267.442L411.825 272.55L412.808 252.991Z" fill="black"/>
<rect x="449.405" y="237.96" width="1.30704" height="71.2338" fill="black"/>
<rect x="374.904" y="237.96" width="1.30704" height="71.2338" fill="black"/>
<path d="M294.795 238.839C293.998 236.079 294.742 233.104 296.744 231.044L505.514 16.2041C508.596 13.0324 513.667 12.9632 516.835 16.0497L556.69 54.8858C559.854 57.9693 559.919 63.0342 556.836 66.1985L325.839 303.256C321.557 307.651 314.125 305.787 312.423 299.892L294.795 238.839Z" fill="#FF5555"/>
<path d="M348.523 234.323L347.292 235.586L341.647 230.086L343.314 228.376L347.383 229.762L349.223 230.52L349.313 230.428L348.491 228.625L346.959 224.635L348.634 222.916L354.278 228.417L353.047 229.681L350.183 226.889L349.339 225.985L349.249 226.078L349.813 227.269L351.191 230.911L349.697 232.444L346.02 231.161L344.815 230.627L344.725 230.72L345.659 231.531L348.523 234.323ZM359.079 223.491L357.929 224.671L356.927 223.694L356.844 223.745L355.37 222.308C355.095 222.04 354.841 221.929 354.609 221.977C354.382 222.019 354.104 222.208 353.776 222.545C353.464 222.865 353.287 223.142 353.246 223.375C353.204 223.609 353.304 223.843 353.546 224.078L353.58 224.111L352.34 225.383L352.315 225.359C351.966 225.019 351.751 224.629 351.667 224.186C351.578 223.738 351.625 223.274 351.807 222.795C351.99 222.305 352.305 221.829 352.754 221.369C353.214 220.897 353.667 220.583 354.114 220.428C354.567 220.266 355.002 220.247 355.42 220.369C355.837 220.48 356.231 220.716 356.602 221.078L359.079 223.491ZM356.273 226.539C355.83 226.994 355.381 227.252 354.927 227.313C354.473 227.375 354.072 227.236 353.724 226.896C353.51 226.688 353.377 226.46 353.324 226.211C353.271 225.962 353.298 225.693 353.405 225.403C353.507 225.108 353.688 224.792 353.95 224.456L355.604 222.372L356.328 223.078L354.994 224.8C354.858 224.963 354.779 225.105 354.759 225.227C354.738 225.339 354.778 225.443 354.879 225.542C354.992 225.651 355.117 225.686 355.255 225.645C355.393 225.605 355.552 225.492 355.733 225.306C356.029 225.003 356.244 224.726 356.379 224.474C356.515 224.223 356.57 223.987 356.545 223.765C356.52 223.533 356.4 223.312 356.187 223.104L356.294 222.978L357.01 223.676L356.895 223.794C357.127 224.207 357.197 224.652 357.103 225.131C357.009 225.598 356.733 226.067 356.273 226.539ZM364.358 218.074L362.905 219.565L360.354 219.132L358.843 220.682L357.714 219.582L359.216 218.04L358.7 215.435L360.162 213.936L360.698 217.464L364.358 218.074ZM360.934 221.587L359.703 222.851L354.058 217.35L355.29 216.086L360.934 221.587ZM366.95 215.583C366.495 216.049 366.014 216.385 365.507 216.591C364.999 216.797 364.487 216.84 363.97 216.719C363.452 216.598 362.947 216.297 362.452 215.816C362.003 215.378 361.711 214.902 361.577 214.388C361.437 213.868 361.447 213.347 361.607 212.823C361.772 212.294 362.082 211.797 362.536 211.331C362.985 210.87 363.455 210.545 363.946 210.356C364.442 210.161 364.938 210.118 365.433 210.228C365.922 210.333 366.386 210.599 366.824 211.026C366.897 211.097 366.962 211.165 367.018 211.231C367.075 211.297 367.134 211.371 367.196 211.453L363.501 215.245L362.836 214.596L365.66 211.698L365.794 212.387C365.738 212.332 365.684 212.28 365.634 212.231C365.583 212.181 365.533 212.132 365.482 212.083C365.162 211.771 364.847 211.634 364.537 211.671C364.227 211.708 363.88 211.923 363.497 212.316C363.081 212.743 362.875 213.123 362.879 213.456C362.878 213.783 363.057 214.122 363.417 214.472L363.737 214.784C364.096 215.134 364.442 215.307 364.775 215.303C365.102 215.293 365.476 215.072 365.898 214.64C366.259 214.269 366.466 213.961 366.518 213.717C366.57 213.472 366.507 213.262 366.327 213.087L366.243 213.005L367.474 211.741L367.567 211.831C367.87 212.127 368.049 212.482 368.105 212.898C368.16 213.313 368.091 213.755 367.897 214.223C367.703 214.68 367.388 215.133 366.95 215.583ZM373.933 208.248L372.702 209.511L367.057 204.011L368.289 202.747L373.933 208.248ZM371.47 201.758L366.15 207.217L365.013 206.109L370.333 200.649L371.47 201.758ZM381.033 200.962L379.802 202.226L377.594 200.075C377.24 199.73 376.911 199.574 376.607 199.605C376.302 199.626 375.955 199.835 375.567 200.234C375.293 200.515 375.116 200.775 375.036 201.015C374.956 201.254 374.962 201.484 375.053 201.705C375.139 201.92 375.3 202.143 375.536 202.373L375.355 202.558L374.555 201.745L374.784 201.509C374.587 201.228 374.447 200.923 374.365 200.591C374.283 200.259 374.292 199.912 374.393 199.551C374.499 199.183 374.728 198.82 375.078 198.46C375.445 198.084 375.827 197.843 376.225 197.738C376.623 197.633 377.011 197.645 377.39 197.773C377.769 197.902 378.121 198.124 378.447 198.442L381.033 200.962ZM377.651 204.433L376.419 205.697L370.775 200.196L372.006 198.933L377.651 204.433ZM383.923 198.166C383.468 198.632 382.987 198.968 382.48 199.174C381.972 199.38 381.46 199.423 380.943 199.302C380.425 199.181 379.919 198.88 379.425 198.398C378.976 197.961 378.684 197.485 378.55 196.971C378.41 196.451 378.42 195.93 378.58 195.406C378.745 194.877 379.054 194.38 379.509 193.914C379.957 193.453 380.427 193.128 380.919 192.939C381.415 192.744 381.911 192.701 382.406 192.811C382.895 192.916 383.359 193.182 383.797 193.609C383.87 193.68 383.935 193.748 383.991 193.814C384.047 193.88 384.107 193.954 384.169 194.036L380.474 197.828L379.809 197.179L382.633 194.281L382.767 194.97C382.71 194.915 382.657 194.863 382.607 194.814C382.556 194.764 382.505 194.715 382.455 194.666C382.135 194.354 381.82 194.216 381.51 194.254C381.199 194.291 380.853 194.506 380.47 194.899C380.054 195.326 379.848 195.706 379.852 196.039C379.851 196.366 380.03 196.705 380.389 197.055L380.71 197.367C381.069 197.717 381.415 197.89 381.748 197.886C382.075 197.876 382.449 197.655 382.871 197.223C383.232 196.852 383.439 196.544 383.491 196.3C383.543 196.055 383.479 195.845 383.3 195.67L383.215 195.588L384.447 194.324L384.54 194.414C384.843 194.71 385.022 195.065 385.077 195.48C385.133 195.896 385.064 196.337 384.87 196.806C384.676 197.263 384.36 197.716 383.923 198.166ZM391.276 190.452L387.819 193.998L382.175 188.498L385.475 185.111C385.853 184.723 386.224 184.45 386.588 184.29C386.946 184.124 387.295 184.075 387.634 184.143C387.967 184.205 388.283 184.382 388.581 184.672C388.929 185.011 389.122 185.397 389.161 185.829C389.195 186.255 388.998 186.721 388.572 187.226L388.648 187.299C389.196 186.815 389.714 186.565 390.202 186.547C390.695 186.524 391.133 186.699 391.515 187.071C391.835 187.383 392.047 187.721 392.152 188.086C392.256 188.451 392.239 188.834 392.1 189.235C391.961 189.625 391.686 190.03 391.276 190.452ZM386.692 190.436L387.913 191.626L389.991 189.495C390.242 189.237 390.378 189.007 390.398 188.807C390.412 188.602 390.306 188.39 390.082 188.171C389.857 187.952 389.645 187.855 389.446 187.88C389.246 187.905 389.021 188.046 388.769 188.304L386.692 190.436ZM384.544 188.342L385.647 189.418L387.577 187.438C387.806 187.202 387.929 186.993 387.943 186.809C387.951 186.621 387.86 186.433 387.669 186.247C387.478 186.061 387.286 185.978 387.092 185.997C386.898 186.016 386.686 186.144 386.456 186.379L384.544 188.342ZM395.804 185.973C395.35 186.439 394.869 186.775 394.362 186.981C393.854 187.188 393.342 187.23 392.824 187.109C392.307 186.989 391.801 186.687 391.307 186.206C390.858 185.768 390.566 185.292 390.432 184.778C390.292 184.258 390.302 183.737 390.461 183.214C390.627 182.685 390.936 182.187 391.391 181.721C391.839 181.26 392.309 180.935 392.8 180.746C393.297 180.551 393.793 180.509 394.288 180.619C394.777 180.723 395.241 180.989 395.679 181.416C395.752 181.487 395.817 181.555 395.873 181.621C395.929 181.687 395.988 181.761 396.051 181.844L392.356 185.635L391.691 184.986L394.515 182.088L394.648 182.777C394.592 182.722 394.539 182.67 394.488 182.621C394.438 182.572 394.387 182.522 394.337 182.473C394.017 182.161 393.701 182.024 393.391 182.061C393.081 182.098 392.735 182.313 392.352 182.707C391.936 183.133 391.73 183.513 391.734 183.846C391.733 184.173 391.912 184.512 392.271 184.862L392.591 185.174C392.951 185.524 393.297 185.697 393.63 185.693C393.957 185.683 394.331 185.462 394.752 185.03C395.114 184.659 395.32 184.351 395.373 184.107C395.425 183.862 395.361 183.652 395.182 183.477L395.097 183.395L396.329 182.131L396.421 182.221C396.725 182.517 396.904 182.872 396.959 183.288C397.015 183.703 396.945 184.145 396.752 184.613C396.558 185.07 396.242 185.524 395.804 185.973ZM400.62 181.031C399.931 181.739 399.268 182.155 398.632 182.279C397.99 182.399 397.425 182.22 396.936 181.744L396.911 181.719L398.142 180.456L398.218 180.529C398.409 180.716 398.604 180.774 398.803 180.705C399.001 180.625 399.276 180.405 399.626 180.045C399.954 179.708 400.143 179.459 400.19 179.298C400.238 179.125 400.2 178.979 400.077 178.858C399.959 178.743 399.836 178.706 399.709 178.747C399.576 178.782 399.373 178.906 399.098 179.121L397.798 180.169C397.342 180.546 396.907 180.757 396.491 180.801C396.081 180.84 395.697 180.684 395.337 180.334C395.09 180.093 394.94 179.804 394.885 179.466C394.825 179.123 394.884 178.742 395.062 178.324C395.239 177.895 395.563 177.439 396.034 176.956C396.483 176.495 396.922 176.162 397.352 175.957C397.782 175.741 398.194 175.661 398.589 175.717C398.983 175.772 399.352 175.967 399.694 176.301L399.719 176.326L398.488 177.59L398.437 177.54C398.319 177.425 398.199 177.358 398.077 177.337C397.955 177.305 397.805 177.34 397.629 177.443C397.459 177.539 397.247 177.716 396.996 177.975C396.689 178.289 396.515 178.53 396.473 178.697C396.425 178.858 396.468 179.005 396.603 179.136C396.71 179.24 396.832 179.277 396.97 179.248C397.109 179.207 397.331 179.069 397.639 178.832L398.627 178.037C399.236 177.535 399.754 177.263 400.18 177.218C400.607 177.174 400.994 177.321 401.342 177.661C401.606 177.918 401.754 178.227 401.787 178.587C401.819 178.947 401.741 179.336 401.552 179.754C401.358 180.167 401.047 180.593 400.62 181.031ZM405.967 175.376L404.949 176.42C404.467 176.915 403.969 177.184 403.454 177.23C402.939 177.275 402.414 177.038 401.881 176.518L398.368 173.095L399.599 171.831L402.969 175.115C403.182 175.323 403.369 175.417 403.53 175.399C403.691 175.369 403.877 175.245 404.091 175.026L404.83 174.267L405.967 175.376ZM402.791 172.28L399.581 175.575L398.536 174.557L401.746 171.262L402.791 172.28ZM408.927 172.339L407.695 173.602L402.051 168.102L403.282 166.838L408.927 172.339ZM410.121 166.9L405.934 171.196L404.805 170.096L408.992 165.799L410.121 166.9ZM407.843 164.433L403.533 168.856L402.395 167.748L406.706 163.325L407.843 164.433ZM414.106 167.024L412.874 168.288L408.654 164.174L409.885 162.911L414.106 167.024ZM409.455 162.492L408.224 163.756L407.23 162.787L408.461 161.523L409.455 162.492ZM419.299 161.695L418.067 162.959L415.86 160.808C415.517 160.474 415.196 160.315 414.897 160.33C414.592 160.339 414.251 160.537 413.873 160.925C413.479 161.329 413.287 161.695 413.297 162.022C413.307 162.338 413.491 162.671 413.85 163.022L413.695 163.182L412.812 162.503L413.042 162.267C412.845 161.998 412.705 161.697 412.623 161.365C412.535 161.028 412.542 160.679 412.643 160.317C412.743 159.944 412.974 159.572 413.335 159.202C413.707 158.82 414.093 158.576 414.49 158.471C414.883 158.361 415.266 158.367 415.639 158.49C416.012 158.613 416.356 158.827 416.67 159.134L419.299 161.695ZM415.982 165.099L414.75 166.362L410.53 162.249L411.671 161.078L412.985 162.359L413.118 162.307L415.982 165.099ZM424.076 156.793L422.927 157.972L421.924 156.995L421.841 157.046L420.367 155.61C420.092 155.342 419.838 155.231 419.606 155.278C419.379 155.32 419.101 155.51 418.773 155.847C418.461 156.167 418.284 156.444 418.243 156.677C418.202 156.91 418.302 157.145 418.543 157.38L418.577 157.413L417.337 158.685L417.312 158.661C416.964 158.321 416.748 157.93 416.665 157.488C416.576 157.04 416.622 156.576 416.805 156.097C416.987 155.606 417.302 155.131 417.751 154.67C418.211 154.198 418.664 153.885 419.112 153.729C419.564 153.568 419.999 153.549 420.417 153.671C420.834 153.782 421.228 154.018 421.599 154.379L424.076 156.793ZM421.27 159.841C420.827 160.295 420.378 160.554 419.924 160.615C419.47 160.676 419.069 160.537 418.721 160.198C418.508 159.99 418.374 159.761 418.321 159.513C418.268 159.264 418.295 158.994 418.402 158.705C418.504 158.409 418.686 158.094 418.947 157.758L420.601 155.673L421.325 156.379L419.992 158.102C419.855 158.264 419.777 158.407 419.756 158.529C419.735 158.64 419.775 158.745 419.877 158.844C419.989 158.953 420.114 158.988 420.252 158.947C420.39 158.906 420.55 158.793 420.73 158.608C421.026 158.305 421.241 158.027 421.377 157.776C421.512 157.525 421.567 157.288 421.542 157.067C421.517 156.834 421.398 156.614 421.184 156.406L421.291 156.28L422.007 156.978L421.892 157.096C422.125 157.509 422.194 157.954 422.101 158.432C422.007 158.899 421.73 159.369 421.27 159.841ZM429.248 151.485L428.017 152.749L425.81 150.598C425.467 150.264 425.146 150.105 424.847 150.119C424.542 150.129 424.201 150.327 423.823 150.715C423.429 151.119 423.237 151.485 423.247 151.812C423.256 152.128 423.441 152.461 423.8 152.812L423.644 152.972L422.762 152.293L422.992 152.057C422.794 151.788 422.654 151.487 422.573 151.155C422.485 150.818 422.492 150.469 422.592 150.107C422.693 149.734 422.924 149.362 423.285 148.992C423.657 148.61 424.042 148.366 424.44 148.261C424.832 148.151 425.215 148.157 425.588 148.28C425.961 148.403 426.305 148.617 426.62 148.924L429.248 151.485ZM425.932 154.889L424.7 156.152L420.479 152.039L421.62 150.868L422.935 152.149L423.067 152.097L425.932 154.889ZM432.148 148.679C431.682 149.156 431.185 149.487 430.655 149.671C430.125 149.855 429.601 149.887 429.084 149.766C428.566 149.634 428.086 149.352 427.642 148.92C427.193 148.482 426.898 148.009 426.759 147.5C426.619 146.981 426.634 146.454 426.805 145.919C426.975 145.385 427.293 144.879 427.758 144.401C428.202 143.946 428.666 143.621 429.152 143.427C429.637 143.232 430.111 143.173 430.572 143.25C431.028 143.322 431.438 143.536 431.803 143.891L431.921 144.006L430.698 145.262L430.63 145.196C430.361 144.933 430.082 144.843 429.795 144.924C429.502 145 429.194 145.203 428.871 145.535C428.504 145.911 428.312 146.266 428.294 146.599C428.282 146.926 428.472 147.281 428.865 147.664C429.247 148.037 429.604 148.215 429.937 148.2C430.269 148.173 430.619 147.972 430.986 147.595C431.309 147.264 431.507 146.954 431.581 146.664C431.649 146.37 431.549 146.091 431.279 145.828L431.212 145.762L432.435 144.507L432.553 144.622C432.918 144.978 433.145 145.385 433.234 145.844C433.318 146.298 433.268 146.77 433.086 147.261C432.904 147.751 432.591 148.224 432.148 148.679ZM436.05 144.506L434.818 145.77L430.597 141.656L431.829 140.393L436.05 144.506ZM431.399 139.974L430.168 141.238L429.174 140.269L430.405 139.005L431.399 139.974ZM440.848 139.582L439.699 140.761L438.696 139.784L438.614 139.835L437.14 138.398C436.864 138.13 436.611 138.02 436.378 138.067C436.151 138.109 435.874 138.298 435.545 138.635C435.233 138.955 435.057 139.232 435.015 139.466C434.974 139.699 435.074 139.933 435.316 140.169L435.349 140.202L434.11 141.474L434.084 141.449C433.736 141.11 433.52 140.719 433.437 140.276C433.348 139.828 433.395 139.364 433.577 138.885C433.759 138.395 434.075 137.919 434.524 137.459C434.983 136.987 435.437 136.673 435.884 136.518C436.337 136.357 436.772 136.337 437.189 136.459C437.607 136.57 438.001 136.807 438.371 137.168L440.848 139.582ZM438.043 142.629C437.599 143.084 437.151 143.342 436.697 143.404C436.243 143.465 435.842 143.326 435.494 142.987C435.28 142.779 435.147 142.55 435.094 142.301C435.041 142.052 435.068 141.783 435.175 141.493C435.276 141.198 435.458 140.882 435.72 140.546L437.373 138.462L438.098 139.168L436.764 140.89C436.628 141.053 436.549 141.195 436.528 141.318C436.508 141.429 436.548 141.534 436.649 141.632C436.761 141.742 436.887 141.776 437.025 141.736C437.163 141.695 437.322 141.582 437.503 141.397C437.798 141.093 438.014 140.816 438.149 140.565C438.285 140.313 438.34 140.077 438.315 139.856C438.29 139.623 438.17 139.403 437.957 139.195L438.063 139.068L438.779 139.766L438.664 139.884C438.897 140.297 438.967 140.743 438.873 141.221C438.779 141.688 438.502 142.157 438.043 142.629ZM442.704 137.677L441.473 138.941L435.828 133.44L437.059 132.177L442.704 137.677ZM447.333 132.927L445.018 135.303L443.88 134.195L446.196 131.819C446.573 131.431 446.829 131.079 446.964 130.761C447.098 130.432 447.097 130.097 446.959 129.754C446.821 129.401 446.528 129.006 446.079 128.568C445.624 128.125 445.221 127.841 444.87 127.718C444.524 127.59 444.192 127.6 443.872 127.748C443.552 127.885 443.203 128.148 442.826 128.535L440.51 130.911L439.373 129.803L441.688 127.427C442.279 126.82 442.901 126.407 443.552 126.188C444.209 125.963 444.866 125.935 445.523 126.104C446.179 126.273 446.803 126.645 447.392 127.22C447.982 127.795 448.37 128.408 448.556 129.06C448.742 129.712 448.731 130.369 448.523 131.032C448.321 131.689 447.924 132.321 447.333 132.927ZM445.913 134.385L444.681 135.649L439.037 130.148L440.268 128.884L445.913 134.385ZM453.017 127.263C452.563 127.729 452.082 128.066 451.574 128.272C451.067 128.478 450.554 128.521 450.037 128.4C449.519 128.279 449.014 127.978 448.519 127.496C448.07 127.058 447.778 126.582 447.644 126.068C447.504 125.549 447.514 125.027 447.674 124.504C447.839 123.975 448.149 123.477 448.603 123.011C449.052 122.551 449.522 122.226 450.013 122.036C450.509 121.841 451.005 121.799 451.5 121.909C451.99 122.014 452.453 122.279 452.891 122.706C452.964 122.777 453.029 122.846 453.085 122.912C453.142 122.977 453.201 123.052 453.263 123.134L449.569 126.925L448.903 126.277L451.727 123.378L451.861 124.067C451.805 124.012 451.751 123.96 451.701 123.911C451.65 123.862 451.6 123.813 451.549 123.763C451.229 123.451 450.914 123.314 450.604 123.351C450.294 123.389 449.947 123.604 449.564 123.997C449.148 124.424 448.942 124.804 448.946 125.136C448.945 125.464 449.124 125.802 449.484 126.153L449.804 126.465C450.163 126.815 450.509 126.988 450.842 126.984C451.169 126.974 451.543 126.753 451.965 126.32C452.326 125.949 452.533 125.642 452.585 125.397C452.637 125.152 452.574 124.942 452.394 124.767L452.31 124.685L453.541 123.422L453.634 123.512C453.937 123.807 454.116 124.163 454.172 124.578C454.227 124.993 454.158 125.435 453.964 125.903C453.77 126.361 453.455 126.814 453.017 127.263ZM457.948 122.203C457.482 122.681 456.985 123.012 456.455 123.196C455.925 123.38 455.401 123.412 454.884 123.291C454.366 123.159 453.886 122.877 453.442 122.444C452.993 122.007 452.698 121.533 452.559 121.025C452.419 120.506 452.434 119.979 452.605 119.444C452.775 118.909 453.093 118.403 453.558 117.926C454.002 117.471 454.466 117.146 454.952 116.951C455.437 116.756 455.911 116.698 456.372 116.775C456.828 116.847 457.238 117.06 457.603 117.416L457.721 117.531L456.498 118.786L456.43 118.721C456.161 118.458 455.882 118.367 455.595 118.449C455.302 118.525 454.994 118.728 454.671 119.06C454.304 119.436 454.112 119.79 454.094 120.123C454.082 120.451 454.272 120.806 454.665 121.189C455.047 121.561 455.405 121.74 455.737 121.724C456.069 121.698 456.419 121.497 456.786 121.12C457.109 120.789 457.307 120.478 457.381 120.189C457.449 119.894 457.349 119.616 457.079 119.353L457.012 119.287L458.235 118.032L458.353 118.147C458.718 118.503 458.945 118.91 459.034 119.369C459.118 119.823 459.068 120.295 458.886 120.785C458.704 121.276 458.391 121.748 457.948 122.203ZM461.85 118.031L460.618 119.294L456.397 115.181L457.629 113.918L461.85 118.031ZM457.199 113.499L455.968 114.763L454.974 113.794L456.205 112.53L457.199 113.499ZM464.656 115.32C463.966 116.027 463.303 116.444 462.667 116.568C462.025 116.688 461.46 116.509 460.971 116.033L460.946 116.008L462.178 114.745L462.253 114.818C462.444 115.005 462.639 115.063 462.838 114.994C463.037 114.914 463.311 114.694 463.661 114.334C463.99 113.997 464.178 113.748 464.226 113.587C464.273 113.414 464.235 113.268 464.112 113.147C463.994 113.032 463.871 112.995 463.744 113.036C463.612 113.071 463.408 113.195 463.134 113.41L461.833 114.458C461.377 114.835 460.942 115.046 460.527 115.09C460.117 115.129 459.732 114.973 459.373 114.623C459.125 114.382 458.975 114.093 458.92 113.755C458.861 113.412 458.919 113.031 459.097 112.613C459.275 112.184 459.599 111.728 460.069 111.245C460.518 110.784 460.957 110.451 461.387 110.246C461.817 110.03 462.229 109.95 462.624 110.005C463.018 110.061 463.387 110.256 463.729 110.59L463.755 110.615L462.523 111.878L462.473 111.829C462.355 111.714 462.235 111.647 462.112 111.626C461.99 111.594 461.841 111.629 461.664 111.732C461.494 111.828 461.283 112.005 461.031 112.264C460.724 112.578 460.55 112.819 460.508 112.986C460.46 113.147 460.503 113.294 460.638 113.425C460.745 113.529 460.867 113.566 461.006 113.537C461.144 113.496 461.367 113.357 461.674 113.121L462.662 112.326C463.271 111.824 463.789 111.552 464.215 111.507C464.642 111.463 465.029 111.61 465.377 111.95C465.641 112.207 465.79 112.516 465.822 112.876C465.854 113.236 465.776 113.625 465.587 114.043C465.393 114.456 465.083 114.882 464.656 115.32ZM468.336 111.375L467.104 112.638L462.884 108.525L464.115 107.262L468.336 111.375ZM463.685 106.843L462.454 108.107L461.46 107.138L462.691 105.874L463.685 106.843ZM471.257 108.546C470.791 109.023 470.291 109.357 469.756 109.547C469.226 109.731 468.699 109.766 468.176 109.651C467.648 109.53 467.162 109.253 466.718 108.821C466.269 108.383 465.98 107.904 465.851 107.385C465.717 106.86 465.735 106.33 465.905 105.795C466.082 105.255 466.402 104.746 466.867 104.269C467.338 103.786 467.838 103.452 468.368 103.268C468.898 103.083 469.428 103.052 469.956 103.172C470.479 103.288 470.965 103.564 471.414 104.002C471.858 104.434 472.147 104.913 472.281 105.438C472.41 105.958 472.389 106.485 472.219 107.02C472.048 107.554 471.727 108.063 471.257 108.546ZM470.136 107.454C470.552 107.027 470.758 106.647 470.754 106.315C470.749 105.971 470.562 105.619 470.191 105.257C469.815 104.891 469.455 104.709 469.111 104.714C468.773 104.713 468.395 104.926 467.979 105.352C467.563 105.779 467.358 106.165 467.362 106.508C467.372 106.847 467.565 107.199 467.941 107.566C468.312 107.927 468.667 108.108 469.005 108.109C469.343 108.099 469.72 107.881 470.136 107.454ZM478.572 100.871L477.34 102.135L475.133 99.9838C474.79 99.6499 474.469 99.4905 474.17 99.5055C473.865 99.5149 473.524 99.7134 473.146 100.101C472.752 100.505 472.56 100.871 472.57 101.198C472.579 101.514 472.764 101.847 473.123 102.198L472.967 102.358L472.085 101.679L472.315 101.443C472.117 101.174 471.978 100.873 471.896 100.541C471.808 100.204 471.815 99.8548 471.915 99.493C472.016 99.1201 472.247 98.7483 472.608 98.3776C472.98 97.9957 473.365 97.7523 473.763 97.6473C474.156 97.5369 474.538 97.543 474.912 97.6658C475.285 97.7885 475.629 98.0031 475.943 98.3096L478.572 100.871ZM475.255 104.275L474.023 105.538L469.803 101.425L470.944 100.254L472.258 101.535L472.39 101.483L475.255 104.275ZM481.356 98.1825C480.666 98.8901 480.003 99.3063 479.367 99.431C478.725 99.5502 478.16 99.3717 477.672 98.8955L477.646 98.8709L478.878 97.6072L478.954 97.6811C479.145 97.8672 479.339 97.9257 479.538 97.8565C479.737 97.7763 480.011 97.5565 480.362 97.1971C480.69 96.8601 480.878 96.6109 480.926 96.4494C480.974 96.2769 480.936 96.1304 480.812 96.01C480.694 95.8951 480.572 95.8578 480.445 95.8983C480.312 95.9333 480.108 96.0579 479.834 96.2722L478.533 97.3205C478.078 97.6979 477.642 97.9088 477.227 97.953C476.817 97.9915 476.432 97.8357 476.073 97.4854C475.826 97.2446 475.675 96.9553 475.621 96.6178C475.561 96.2747 475.62 95.894 475.797 95.4758C475.975 95.0465 476.299 94.5903 476.77 94.1073C477.218 93.6468 477.658 93.3139 478.088 93.1087C478.517 92.8924 478.93 92.8122 479.324 92.8681C479.719 92.924 480.087 93.1189 480.43 93.4528L480.455 93.4774L479.223 94.7411L479.173 94.6919C479.055 94.5769 478.935 94.5091 478.813 94.4885C478.69 94.4569 478.541 94.4921 478.365 94.5942C478.194 94.6906 477.983 94.8681 477.731 95.1264C477.425 95.4409 477.25 95.6817 477.208 95.8486C477.16 96.01 477.204 96.1564 477.338 96.2878C477.445 96.3918 477.568 96.429 477.706 96.3995C477.844 96.3589 478.067 96.2201 478.374 95.9832L479.362 95.1885C479.971 94.6871 480.489 94.4142 480.916 94.3699C481.342 94.3255 481.729 94.4731 482.078 94.8124C482.342 95.0696 482.49 95.3783 482.522 95.7383C482.555 96.0984 482.476 96.4876 482.288 96.906C482.093 97.3189 481.783 97.7444 481.356 98.1825Z" fill="black"/>
<path d="M56.6392 251.595L521.348 4.50527C525.249 2.43102 530.093 3.91197 532.167 7.81308L558.192 56.7584C560.266 60.6595 558.785 65.5035 554.884 67.5778L90.1754 314.668L56.6392 251.595Z" fill="black"/>
<g clip-path="url(#clip0_45_452)">
<path d="M344.8 136.222L343.358 136.989C342.88 137.243 342.698 137.837 342.952 138.315C343.207 138.793 343.8 138.974 344.278 138.72L344.855 138.413C345.333 138.159 345.927 138.341 346.181 138.819C346.435 139.297 346.254 139.89 345.776 140.144L344.333 140.911M343.339 136.259L343.646 136.836M345.487 140.298L345.794 140.875M348.029 136.726L348.035 136.723M341.104 140.408L341.11 140.405M337.63 139.442L339.962 143.828C340.306 144.474 340.478 144.797 340.735 144.977C340.961 145.135 341.231 145.218 341.507 145.213C341.821 145.208 342.144 145.036 342.79 144.692L350.638 140.52C351.284 140.176 351.608 140.004 351.788 139.747C351.946 139.521 352.029 139.251 352.024 138.975C352.018 138.661 351.846 138.338 351.503 137.691L349.171 133.306C348.827 132.66 348.655 132.336 348.398 132.157C348.172 131.998 347.902 131.916 347.626 131.92C347.312 131.926 346.989 132.098 346.343 132.441L338.495 136.614C337.849 136.958 337.526 137.129 337.346 137.386C337.187 137.613 337.105 137.883 337.11 138.159C337.115 138.473 337.287 138.796 337.63 139.442ZM348.317 136.573C348.402 136.732 348.341 136.93 348.182 137.014C348.023 137.099 347.825 137.039 347.74 136.879C347.656 136.72 347.716 136.522 347.875 136.437C348.035 136.353 348.233 136.413 348.317 136.573ZM341.393 140.254C341.478 140.414 341.417 140.611 341.258 140.696C341.099 140.781 340.901 140.72 340.816 140.561C340.731 140.402 340.792 140.204 340.951 140.119C341.11 140.034 341.308 140.095 341.393 140.254Z" stroke="#FF5555" stroke-width="1.30704" stroke-linecap="round" stroke-linejoin="round"/>
</g>
<circle cx="344.567" cy="138.567" r="15.3578" transform="rotate(-28 344.567 138.567)" stroke="#FF5555" stroke-width="0.653521"/>
<path d="M367.134 120.567L365.576 121.395L361.876 114.436L363.434 113.608L367.134 120.567ZM369.928 115.75L364.631 118.567L363.891 117.175L369.188 114.358L369.928 115.75ZM368.51 112.707L363.057 115.606L362.312 114.204L367.765 111.305L368.51 112.707ZM373.686 117.083L372.128 117.911L369.361 112.708L370.919 111.879L373.686 117.083ZM370.638 111.349L369.08 112.178L368.428 110.952L369.986 110.124L370.638 111.349ZM380.256 113.59L378.698 114.418L377.251 111.697C377.026 111.274 376.769 111.025 376.48 110.948C376.186 110.864 375.801 110.949 375.323 111.203C374.824 111.468 374.53 111.758 374.44 112.072C374.352 112.376 374.427 112.75 374.662 113.193L374.465 113.298L373.832 112.382L374.122 112.228C374.016 111.911 373.975 111.582 373.998 111.242C374.017 110.894 374.13 110.563 374.336 110.249C374.545 109.924 374.879 109.641 375.336 109.398C375.806 109.147 376.247 109.033 376.658 109.054C377.066 109.068 377.428 109.191 377.746 109.422C378.064 109.652 378.326 109.961 378.533 110.349L380.256 113.59ZM376.06 115.821L374.502 116.649L371.735 111.446L373.178 110.678L374.04 112.298L374.182 112.289L376.06 115.821ZM386.299 110.376L384.845 111.149L384.188 109.913L384.094 109.937L383.127 108.119C382.947 107.78 382.739 107.597 382.503 107.572C382.275 107.542 381.952 107.638 381.537 107.859C381.142 108.069 380.89 108.279 380.779 108.488C380.669 108.698 380.693 108.952 380.851 109.25L380.873 109.291L379.305 110.125L379.288 110.094C379.06 109.665 378.973 109.227 379.029 108.78C379.081 108.326 379.266 107.898 379.586 107.497C379.909 107.086 380.354 106.729 380.922 106.427C381.504 106.118 382.031 105.957 382.505 105.946C382.985 105.93 383.405 106.044 383.766 106.288C384.129 106.521 384.433 106.866 384.676 107.323L386.299 110.376ZM382.699 112.424C382.138 112.722 381.632 112.831 381.181 112.751C380.73 112.671 380.39 112.417 380.162 111.988C380.022 111.724 379.964 111.466 379.99 111.213C380.015 110.96 380.123 110.712 380.313 110.468C380.5 110.218 380.769 109.973 381.121 109.732L383.331 108.251L383.806 109.144L382.011 110.378C381.831 110.492 381.713 110.603 381.656 110.713C381.602 110.813 381.609 110.925 381.675 111.05C381.748 111.188 381.857 111.259 382.001 111.263C382.145 111.266 382.331 111.207 382.56 111.086C382.934 110.887 383.223 110.688 383.429 110.49C383.634 110.292 383.759 110.084 383.803 109.865C383.85 109.636 383.803 109.39 383.663 109.127L383.803 109.039L384.272 109.922L384.127 109.999C384.223 110.463 384.153 110.909 383.918 111.336C383.687 111.752 383.28 112.115 382.699 112.424ZM392.843 106.897L391.285 107.725L389.838 105.004C389.614 104.582 389.357 104.332 389.067 104.255C388.774 104.171 388.388 104.256 387.91 104.51C387.412 104.775 387.117 105.065 387.027 105.38C386.94 105.683 387.014 106.057 387.25 106.5L387.052 106.605L386.419 105.689L386.71 105.535C386.604 105.218 386.562 104.889 386.585 104.549C386.605 104.201 386.717 103.87 386.923 103.556C387.133 103.232 387.466 102.948 387.923 102.705C388.394 102.454 388.835 102.34 389.246 102.361C389.653 102.376 390.016 102.498 390.334 102.729C390.652 102.959 390.914 103.268 391.12 103.656L392.843 106.897ZM388.647 109.128L387.089 109.956L384.322 104.753L385.766 103.985L386.627 105.605L386.769 105.596L388.647 109.128ZM396.46 105.107C395.871 105.42 395.296 105.583 394.735 105.598C394.174 105.612 393.666 105.482 393.21 105.209C392.757 104.926 392.386 104.511 392.095 103.964C391.8 103.41 391.664 102.87 391.686 102.343C391.711 101.805 391.886 101.308 392.212 100.851C392.537 100.394 392.994 100.009 393.582 99.6957C394.143 99.3975 394.685 99.2295 395.206 99.1919C395.728 99.1543 396.197 99.2425 396.613 99.4566C397.025 99.6638 397.351 99.9925 397.59 100.443L397.667 100.588L396.12 101.411L396.076 101.328C395.899 100.995 395.661 100.824 395.363 100.814C395.061 100.797 394.705 100.897 394.297 101.114C393.833 101.361 393.542 101.64 393.423 101.952C393.312 102.26 393.385 102.656 393.642 103.141C393.893 103.612 394.179 103.891 394.5 103.977C394.825 104.053 395.219 103.968 395.683 103.721C396.092 103.504 396.375 103.269 396.534 103.016C396.689 102.756 396.678 102.46 396.501 102.127L396.457 102.044L398.004 101.222L398.082 101.367C398.321 101.817 398.413 102.274 398.358 102.739C398.299 103.196 398.108 103.631 397.785 104.042C397.463 104.454 397.021 104.809 396.46 105.107ZM402.708 101.785C402.133 102.091 401.572 102.264 401.026 102.306C400.48 102.348 399.979 102.232 399.523 101.959C399.067 101.687 398.677 101.246 398.353 100.636C398.059 100.082 397.926 99.5402 397.955 99.0097C397.98 98.4723 398.148 97.9787 398.459 97.5289C398.778 97.0753 399.224 96.6958 399.799 96.3902C400.367 96.0883 400.914 95.922 401.439 95.8913C401.971 95.8569 402.457 95.9675 402.895 96.2232C403.329 96.4719 403.689 96.8664 403.977 97.4065C404.025 97.4965 404.065 97.5814 404.099 97.6612C404.132 97.7411 404.166 97.8297 404.2 97.9271L399.526 100.412L399.09 99.5917L402.663 97.692L402.58 98.3887C402.544 98.3194 402.509 98.2536 402.475 98.1913C402.442 98.129 402.409 98.0667 402.376 98.0044C402.166 97.6097 401.908 97.3828 401.601 97.3239C401.295 97.2649 400.899 97.3643 400.414 97.622C399.888 97.9018 399.576 98.2008 399.479 98.519C399.378 98.8302 399.445 99.2074 399.681 99.6506L399.891 100.045C400.126 100.488 400.403 100.759 400.721 100.856C401.036 100.946 401.46 100.85 401.993 100.566C402.45 100.323 402.741 100.093 402.865 99.876C402.989 99.6589 402.993 99.4396 402.875 99.218L402.82 99.1141L404.378 98.2858L404.438 98.4C404.637 98.7739 404.7 99.167 404.626 99.5793C404.552 99.9917 404.351 100.391 404.024 100.778C403.7 101.155 403.262 101.49 402.708 101.785Z" fill="white"/>
<path d="M375.392 136.9L374.27 137.497L370.57 130.538L372.097 129.726L376.244 132.69L377.645 133.797L377.728 133.753L377.573 131.983L377.414 126.898L378.941 126.087L382.641 133.045L381.52 133.642L379.25 129.373L378.756 128.343L378.673 128.388L378.782 129.622L378.91 134.497L377.56 135.215L373.589 132.383L372.628 131.602L372.545 131.646L373.122 132.631L375.392 136.9ZM386.376 131.193C385.808 131.495 385.247 131.651 384.693 131.661C384.142 131.661 383.639 131.525 383.183 131.252C382.731 130.968 382.364 130.564 382.085 130.037C381.797 129.497 381.665 128.964 381.687 128.437C381.715 127.907 381.886 127.416 382.197 126.967C382.512 126.506 382.953 126.125 383.521 125.823C384.102 125.514 384.669 125.359 385.22 125.36C385.767 125.353 386.265 125.488 386.714 125.764C387.17 126.037 387.541 126.443 387.828 126.983C388.108 127.51 388.235 128.042 388.21 128.579C388.188 129.106 388.024 129.597 387.716 130.054C387.404 130.504 386.958 130.884 386.376 131.193ZM385.846 130.196C386.476 129.861 386.854 129.478 386.98 129.047C387.102 128.608 387.018 128.116 386.727 127.569C386.436 127.022 386.075 126.677 385.644 126.533C385.208 126.383 384.676 126.475 384.045 126.81C383.422 127.141 383.051 127.529 382.933 127.974C382.81 128.412 382.895 128.905 383.185 129.452C383.476 129.999 383.838 130.344 384.269 130.488C384.697 130.625 385.223 130.527 385.846 130.196ZM392.508 127.933C391.677 128.374 390.948 128.557 390.322 128.482C389.703 128.403 389.235 128.065 388.918 127.47L388.901 127.439L390.023 126.842L390.067 126.925C390.248 127.265 390.484 127.441 390.775 127.455C391.07 127.458 391.487 127.316 392.027 127.029C392.533 126.76 392.848 126.526 392.973 126.326C393.101 126.116 393.104 125.897 392.983 125.668C392.869 125.454 392.715 125.34 392.522 125.327C392.335 125.311 392.042 125.378 391.643 125.528L390.131 126.092C389.606 126.291 389.148 126.357 388.757 126.29C388.362 126.216 388.049 125.96 387.817 125.524C387.655 125.219 387.603 124.905 387.661 124.581C387.716 124.25 387.889 123.923 388.179 123.6C388.469 123.276 388.877 122.975 389.403 122.695C389.93 122.415 390.417 122.245 390.864 122.185C391.319 122.121 391.72 122.174 392.068 122.344C392.423 122.511 392.709 122.798 392.926 123.207L392.943 123.238L391.832 123.829L391.798 123.767C391.692 123.566 391.56 123.418 391.403 123.324C391.246 123.23 391.042 123.205 390.791 123.25C390.543 123.284 390.228 123.403 389.847 123.605C389.369 123.859 389.067 124.091 388.939 124.301C388.81 124.512 388.811 124.738 388.94 124.98C389.047 125.181 389.193 125.29 389.379 125.306C389.566 125.322 389.864 125.257 390.274 125.11L391.557 124.641C392.207 124.393 392.736 124.303 393.145 124.37C393.554 124.437 393.872 124.685 394.1 125.114C394.27 125.433 394.316 125.763 394.241 126.105C394.162 126.44 393.975 126.766 393.681 127.082C393.384 127.391 392.993 127.675 392.508 127.933ZM399.058 124.317L397.874 124.946C397.32 125.241 396.808 125.34 396.339 125.243C395.877 125.142 395.48 124.78 395.149 124.157L392.73 119.608L393.841 119.017L396.227 123.504C396.397 123.822 396.587 123.996 396.798 124.026C397.006 124.049 397.269 123.976 397.587 123.806L398.522 123.309L399.058 124.317ZM396.81 120.089L392.957 122.138L392.46 121.204L396.313 119.155L396.81 120.089ZM403.826 119.09L400.845 120.675L400.309 119.668L403.186 118.138C403.712 117.858 404.05 117.541 404.199 117.187C404.355 116.828 404.295 116.39 404.019 115.87C403.746 115.358 403.418 115.066 403.034 114.995C402.653 114.913 402.199 115.012 401.673 115.292L398.796 116.822L398.26 115.815L401.241 114.23C401.76 113.953 402.265 113.809 402.756 113.797C403.25 113.774 403.7 113.886 404.107 114.131C404.52 114.374 404.864 114.754 405.14 115.274C405.413 115.786 405.534 116.281 405.504 116.759C405.481 117.233 405.323 117.672 405.032 118.076C404.747 118.476 404.345 118.814 403.826 119.09ZM402.656 122.403L401.534 123L397.834 116.041L398.956 115.445L402.656 122.403ZM410.912 118.147C410.344 118.449 409.783 118.605 409.229 118.615C408.678 118.615 408.175 118.479 407.719 118.206C407.267 117.922 406.9 117.518 406.62 116.991C406.333 116.451 406.201 115.918 406.223 115.391C406.251 114.861 406.422 114.37 406.733 113.921C407.048 113.46 407.489 113.079 408.057 112.777C408.638 112.468 409.205 112.313 409.755 112.314C410.303 112.307 410.801 112.442 411.25 112.718C411.706 112.991 412.077 113.397 412.364 113.937C412.644 114.464 412.771 114.996 412.746 115.533C412.724 116.06 412.559 116.551 412.252 117.008C411.94 117.458 411.494 117.838 410.912 118.147ZM410.382 117.15C411.012 116.815 411.39 116.432 411.516 116.001C411.638 115.562 411.554 115.07 411.263 114.523C410.972 113.976 410.611 113.631 410.18 113.487C409.744 113.337 409.212 113.429 408.581 113.764C407.958 114.095 407.587 114.483 407.469 114.928C407.346 115.366 407.431 115.859 407.721 116.406C408.012 116.953 408.374 117.298 408.805 117.442C409.233 117.579 409.759 117.481 410.382 117.15ZM417.885 114.439C417.31 114.745 416.764 114.853 416.246 114.764C415.728 114.676 415.292 114.423 414.938 114.008L414.699 114.135L414.147 113.096L414.344 112.991C414.528 113.337 414.757 113.593 415.032 113.758C415.302 113.916 415.6 113.984 415.926 113.962C416.255 113.929 416.6 113.817 416.96 113.626C417.334 113.427 417.621 113.207 417.822 112.967C418.026 112.717 418.133 112.433 418.143 112.117C418.152 111.801 418.049 111.439 417.831 111.031C417.61 110.615 417.366 110.323 417.099 110.154C416.832 109.986 416.539 109.919 416.22 109.955C415.909 109.988 415.573 110.1 415.213 110.291C414.639 110.597 414.269 110.971 414.105 111.413C413.937 111.849 414 112.344 414.294 112.898L414.097 113.003L413.417 111.899L413.687 111.755C413.537 111.222 413.57 110.725 413.786 110.264C414.006 109.791 414.417 109.395 415.02 109.075C415.553 108.791 416.067 108.665 416.563 108.694C417.054 108.717 417.504 108.878 417.911 109.176C418.319 109.475 418.666 109.894 418.953 110.434C419.233 110.96 419.385 111.479 419.408 111.991C419.434 112.492 419.322 112.956 419.069 113.383C418.82 113.8 418.425 114.152 417.885 114.439ZM416.608 117.25L415.487 117.846L411.803 110.918L412.831 110.372L413.693 111.992L413.858 112.077L416.608 117.25ZM423.305 111.557C422.821 111.815 422.368 111.932 421.946 111.907C421.524 111.882 421.147 111.75 420.815 111.509C420.483 111.268 420.21 110.947 419.996 110.546L418.345 107.44L419.456 106.849L420.948 109.653C421.202 110.131 421.513 110.432 421.881 110.556C422.252 110.67 422.711 110.581 423.258 110.29C423.833 109.985 424.176 109.62 424.288 109.196C424.404 108.762 424.312 108.264 424.014 107.703L424.206 107.588L424.809 108.573L424.571 108.7C424.677 109.016 424.711 109.349 424.674 109.697C424.638 110.045 424.511 110.383 424.295 110.711C424.085 111.036 423.756 111.318 423.305 111.557ZM426.522 109.714L425.494 110.26L424.632 108.64L424.511 108.638L422.656 105.148L423.777 104.552L426.522 109.714ZM428.663 108.575L427.541 109.172L423.841 102.213L424.963 101.616L428.663 108.575ZM434.583 105.428L433.555 105.974L432.848 104.645L432.759 104.652L431.82 102.887C431.592 102.457 431.329 102.215 431.033 102.159C430.741 102.093 430.345 102.192 429.846 102.457C429.368 102.711 429.056 102.984 428.909 103.275C428.762 103.567 428.79 103.903 428.992 104.284L429.014 104.325L427.903 104.916L427.881 104.874C427.671 104.48 427.589 104.075 427.635 103.66C427.677 103.238 427.844 102.834 428.136 102.447C428.435 102.057 428.858 101.717 429.405 101.426C429.952 101.135 430.448 100.991 430.894 100.994C431.343 100.987 431.735 101.098 432.07 101.328C432.413 101.554 432.694 101.875 432.915 102.291L434.583 105.428ZM431.273 107.321C430.74 107.604 430.252 107.713 429.808 107.647C429.367 107.57 429.035 107.321 428.81 106.898C428.667 106.628 428.613 106.368 428.649 106.118C428.688 105.858 428.804 105.609 428.998 105.373C429.192 105.136 429.448 104.907 429.765 104.685L432.078 103.122L432.432 103.787L430.43 105.158C430.157 105.347 429.972 105.525 429.875 105.693C429.78 105.85 429.787 106.028 429.893 106.229C430.004 106.437 430.159 106.554 430.36 106.581C430.564 106.596 430.825 106.52 431.144 106.35C431.538 106.141 431.855 105.91 432.095 105.658C432.33 105.4 432.474 105.119 432.526 104.816C432.578 104.513 432.514 104.192 432.333 103.853L432.49 103.796L432.943 104.648L432.797 104.725C432.891 105.235 432.807 105.719 432.544 106.178C432.285 106.627 431.862 107.008 431.273 107.321ZM436.706 104.299L435.584 104.895L432.84 99.733L433.868 99.1863L434.647 100.651L434.768 100.653L436.706 104.299ZM435.165 101.401L434.916 101.533L434.452 100.661L434.681 100.539C434.578 100.23 434.541 99.9255 434.568 99.6266C434.592 99.3208 434.69 99.0376 434.863 98.7772C435.042 98.5131 435.308 98.2872 435.662 98.0994C436.056 97.8896 436.422 97.8014 436.76 97.8351C437.098 97.8687 437.396 97.9946 437.654 98.2126C437.919 98.427 438.138 98.6969 438.311 99.0224L438.67 99.6975L437.558 100.288L437.315 99.8314C437.116 99.4575 436.888 99.2282 436.63 99.1434C436.371 99.0587 436.048 99.1194 435.661 99.3256C435.218 99.5612 434.963 99.8517 434.898 100.197C434.833 100.543 434.922 100.944 435.165 101.401ZM443.351 100.766L442.104 101.428L441.51 92.8182L443.089 91.9788L449.894 97.2865L448.627 97.9602L443.812 94.1919L442.883 93.4206L442.8 93.4648L442.919 94.6668L443.351 100.766ZM447.323 96.3352L442.681 98.8038L442.145 97.7963L446.788 95.3277L447.323 96.3352ZM453.076 95.728C452.508 96.0299 451.954 96.1824 451.414 96.1854C450.87 96.1815 450.373 96.0413 449.925 95.7649C449.479 95.4778 449.116 95.0712 448.836 94.5449C448.549 94.0048 448.413 93.4732 448.428 92.9501C448.45 92.4233 448.613 91.9369 448.918 91.4907C449.218 91.0376 449.653 90.6601 450.221 90.3582C450.74 90.0821 451.248 89.9273 451.746 89.8938C452.243 89.8603 452.692 89.9455 453.094 90.1494C453.499 90.3428 453.817 90.6576 454.049 91.0938L454.104 91.1977L452.993 91.7886L452.96 91.7262C452.746 91.3246 452.449 91.1005 452.069 91.0539C451.686 91.0004 451.241 91.108 450.736 91.3768C450.154 91.686 449.804 92.0544 449.684 92.4819C449.562 92.9024 449.649 93.3932 449.948 93.954C450.242 94.508 450.6 94.8551 451.021 94.9954C451.438 95.1288 451.938 95.0408 452.519 94.7316C453.025 94.4628 453.364 94.1579 453.538 93.8167C453.709 93.4686 453.687 93.0938 453.473 92.6922L453.435 92.6195L454.546 92.0286L454.607 92.1428C454.835 92.5721 454.918 93.0121 454.856 93.4627C454.8 93.9096 454.619 94.3299 454.314 94.7235C454.008 95.117 453.595 95.4519 453.076 95.728ZM459.192 92.476C458.624 92.7779 458.07 92.9303 457.53 92.9333C456.986 92.9294 456.49 92.7892 456.041 92.5128C455.595 92.2258 455.232 91.8191 454.952 91.2929C454.665 90.7528 454.529 90.2212 454.544 89.6981C454.566 89.1713 454.729 88.6848 455.034 88.2386C455.335 87.7856 455.769 87.4081 456.337 87.1062C456.856 86.83 457.365 86.6752 457.862 86.6417C458.359 86.6082 458.809 86.6934 459.21 86.8974C459.615 87.0907 459.933 87.4055 460.165 87.8417L460.22 87.9456L459.109 88.5365L459.076 88.4742C458.862 88.0726 458.566 87.8485 458.186 87.8019C457.802 87.7483 457.357 87.8559 456.852 88.1247C456.27 88.434 455.92 88.8023 455.801 89.2298C455.678 89.6504 455.766 90.1411 456.064 90.702C456.358 91.2559 456.716 91.603 457.137 91.7433C457.554 91.8767 458.054 91.7888 458.636 91.4795C459.141 91.2108 459.481 90.9058 459.655 90.5646C459.825 90.2166 459.803 89.8417 459.59 89.4401L459.551 89.3674L460.662 88.7765L460.723 88.8908C460.951 89.3201 461.034 89.76 460.972 90.2106C460.916 90.6576 460.736 91.0778 460.43 91.4714C460.124 91.865 459.711 92.1998 459.192 92.476ZM465.339 89.2073C464.772 89.5092 464.211 89.6654 463.657 89.6757C463.106 89.6755 462.603 89.539 462.147 89.2663C461.694 88.9829 461.328 88.5781 461.048 88.0519C460.761 87.5118 460.628 86.9783 460.65 86.4515C460.679 85.9211 460.849 85.4309 461.16 84.9811C461.475 84.5206 461.916 84.1394 462.484 83.8375C463.066 83.5283 463.632 83.3738 464.183 83.374C464.73 83.3673 465.228 83.5022 465.677 83.7786C466.133 84.0514 466.504 84.4578 466.792 84.9979C467.071 85.5241 467.199 86.0559 467.174 86.5933C467.152 87.1201 466.987 87.6119 466.679 88.0687C466.368 88.5185 465.921 88.8981 465.339 89.2073ZM464.809 88.2102C465.439 87.8752 465.817 87.4921 465.943 87.0609C466.066 86.6228 465.982 86.1303 465.691 85.5833C465.4 85.0362 465.039 84.691 464.607 84.5474C464.172 84.3969 463.639 84.4892 463.009 84.8242C462.386 85.1556 462.015 85.5438 461.896 85.9888C461.774 86.4269 461.858 86.9194 462.149 87.4665C462.44 88.0135 462.801 88.3588 463.233 88.5023C463.661 88.6389 464.186 88.5416 464.809 88.2102ZM471.181 86.1016C470.696 86.3593 470.243 86.4759 469.821 86.4514C469.399 86.4268 469.022 86.2942 468.69 86.0534C468.358 85.8127 468.085 85.4915 467.871 85.0899L466.22 81.9843L467.332 81.3934L468.823 84.1978C469.077 84.6755 469.388 84.9765 469.756 85.1006C470.127 85.2141 470.586 85.1254 471.133 84.8345C471.708 84.5289 472.051 84.1642 472.163 83.7404C472.279 83.306 472.187 82.8084 471.889 82.2475L472.081 82.1322L472.684 83.117L472.446 83.244C472.552 83.5606 472.586 83.893 472.549 84.2412C472.513 84.5895 472.386 84.9277 472.17 85.2559C471.96 85.5804 471.631 85.8623 471.181 86.1016ZM474.397 84.2581L473.369 84.8048L472.507 83.1845L472.386 83.1823L470.531 79.6925L471.652 79.096L474.397 84.2581ZM480.807 80.85L479.685 81.4465L478.194 78.6421C477.936 78.1574 477.625 77.8565 477.261 77.7393C476.903 77.6185 476.455 77.7016 475.915 77.9888C475.354 78.287 475.016 78.6533 474.9 79.0877C474.788 79.5115 474.881 80.0039 475.179 80.5647L474.987 80.68L474.394 79.6898L474.623 79.5683C474.524 79.248 474.489 78.9156 474.519 78.571C474.552 78.2159 474.675 77.8795 474.888 77.5619C475.105 77.2337 475.431 76.9537 475.867 76.7217C476.345 76.4677 476.795 76.3529 477.216 76.3775C477.638 76.402 478.011 76.5365 478.337 76.7809C478.669 77.0217 478.942 77.3429 479.155 77.7445L480.807 80.85ZM476.538 83.1198L475.416 83.7162L472.671 78.5542L473.7 78.0074L474.561 79.6277L474.682 79.6299L476.538 83.1198ZM485.192 78.5182L484.008 79.1478C483.454 79.4423 482.943 79.5411 482.474 79.4441C482.012 79.3434 481.615 78.9814 481.283 78.3583L478.865 73.809L479.976 73.2181L482.362 77.705C482.531 78.0235 482.721 78.1977 482.933 78.2275C483.14 78.2504 483.403 78.1771 483.722 78.0077L484.657 77.5107L485.192 78.5182ZM482.945 74.2909L479.091 76.3398L478.594 75.405L482.447 73.3561L482.945 74.2909ZM487.016 77.5487L485.894 78.1451L483.149 72.9831L484.271 72.3866L487.016 77.5487ZM483.951 71.7842L482.829 72.3806L482.194 71.1862L483.315 70.5898L483.951 71.7842ZM493.445 74.1302L492.323 74.7266L490.832 71.9223C490.574 71.4376 490.263 71.1366 489.899 71.0195C489.542 70.8986 489.093 70.9818 488.553 71.2689C487.992 71.5672 487.654 71.9335 487.538 72.3679C487.426 72.7917 487.519 73.284 487.817 73.8449L487.626 73.9602L487.033 72.9699L487.261 72.8484C487.162 72.5282 487.127 72.1957 487.157 71.8512C487.19 71.496 487.313 71.1596 487.527 70.8421C487.743 70.5139 488.069 70.2338 488.505 70.0019C488.983 69.7478 489.433 69.6331 489.854 69.6576C490.276 69.6821 490.649 69.8166 490.975 70.0611C491.307 70.3018 491.58 70.623 491.794 71.0246L493.445 74.1302ZM489.176 76.3999L488.054 76.9964L485.31 71.8343L486.338 71.2876L487.199 72.9079L487.32 72.9101L489.176 76.3999ZM498.149 74.0269C497.637 74.2993 497.145 74.459 496.672 74.5059C496.203 74.5598 495.781 74.5002 495.405 74.3272C495.035 74.1505 494.74 73.8544 494.519 73.439L495.631 72.848C495.763 73.0973 495.922 73.2705 496.107 73.3676C496.292 73.4647 496.511 73.4855 496.766 73.43C497.031 73.3778 497.348 73.2541 497.715 73.059C498.109 72.8491 498.397 72.6384 498.578 72.4269C498.769 72.2186 498.859 71.9796 498.849 71.7097C498.839 71.4398 498.732 71.1144 498.53 70.7336L496.923 67.7112L496.967 67.5943L496.155 66.0675L497.184 65.5207L499.608 70.0804C499.914 70.6551 500.048 71.1832 500.011 71.6648C499.978 72.1533 499.799 72.5945 499.476 72.9885C499.152 73.3825 498.71 73.7287 498.149 74.0269ZM496.439 71.9384C495.927 72.2109 495.434 72.3443 494.96 72.3386C494.493 72.3292 494.064 72.1979 493.671 71.9446C493.286 71.6877 492.966 71.3203 492.712 70.8425C492.458 70.3647 492.336 69.8924 492.345 69.4256C492.362 68.9551 492.503 68.52 492.771 68.1204C493.045 67.7171 493.441 67.3774 493.961 67.1012C494.501 66.8141 495.022 66.6923 495.525 66.7358C496.031 66.7687 496.449 66.9863 496.778 67.3885L497.017 67.2615L497.435 68.1983L497.238 68.3032C497.083 68.0124 496.885 67.8068 496.643 67.6866C496.398 67.5594 496.122 67.5155 495.814 67.5547C495.506 67.594 495.169 67.7112 494.802 67.9064C494.449 68.0941 494.164 68.303 493.949 68.5329C493.741 68.7591 493.623 69.0129 493.595 69.2943C493.57 69.5651 493.653 69.8805 493.845 70.2405C494.032 70.5937 494.247 70.8391 494.489 70.9769C494.731 71.1147 495.003 71.1658 495.303 71.1302C495.608 71.084 495.936 70.967 496.289 70.7792C496.857 70.4773 497.231 70.1277 497.41 69.7302C497.59 69.3328 497.558 68.9056 497.315 68.4486L497.512 68.3437L498.054 69.3615L497.783 69.5051C497.903 69.9477 497.856 70.3856 497.643 70.819C497.429 71.2523 497.028 71.6255 496.439 71.9384ZM503.468 68.8005L502.222 69.4632L501.627 60.8531L503.206 60.0136L510.012 65.3213L508.745 65.9951L503.93 62.2268L503 61.4554L502.917 61.4996L503.037 62.7017L503.468 68.8005ZM507.441 64.3701L502.798 66.8387L502.263 65.8312L506.905 63.3626L507.441 64.3701ZM513.869 63.4039C513.294 63.7095 512.748 63.8179 512.23 63.7291C511.712 63.6404 511.276 63.3882 510.921 62.9726L510.682 63.0996L510.13 62.0609L510.328 61.956C510.512 62.3022 510.741 62.5578 511.015 62.7229C511.286 62.881 511.584 62.9489 511.91 62.9268C512.238 62.894 512.583 62.7818 512.943 62.5904C513.317 62.3916 513.604 62.1721 513.805 61.932C514.01 61.6813 514.117 61.398 514.126 61.082C514.136 60.766 514.032 60.4038 513.815 59.9952C513.594 59.5798 513.35 59.2877 513.082 59.119C512.815 58.9503 512.522 58.8839 512.204 58.92C511.892 58.9523 511.557 59.0642 511.197 59.2557C510.622 59.5613 510.252 59.9354 510.088 60.378C509.92 60.8137 509.983 61.3086 510.278 61.8625L510.081 61.9675L509.4 60.8636L509.67 60.72C509.52 60.187 509.553 59.6898 509.77 59.2283C509.99 58.7562 510.401 58.36 511.003 58.0396C511.536 57.7562 512.05 57.6293 512.546 57.6589C513.038 57.6817 513.487 57.8423 513.895 58.1409C514.302 58.4394 514.649 58.8587 514.937 59.3988C515.216 59.925 515.368 60.444 515.391 60.9556C515.418 61.4566 515.305 61.9208 515.052 62.3481C514.803 62.7648 514.409 63.1167 513.869 63.4039ZM512.592 66.2144L511.47 66.8109L507.787 59.8831L508.815 59.3364L509.676 60.9567L509.842 61.042L512.592 66.2144ZM520.421 59.92C519.846 60.2255 519.3 60.3339 518.782 60.2452C518.264 60.1564 517.828 59.9042 517.474 59.4886L517.235 59.6156L516.683 58.577L516.88 58.472C517.064 58.8183 517.293 59.0739 517.567 59.2389C517.838 59.397 518.136 59.465 518.462 59.4428C518.791 59.41 519.135 59.2979 519.495 59.1064C519.869 58.9076 520.157 58.6882 520.358 58.4481C520.562 58.1974 520.669 57.914 520.679 57.598C520.688 57.2821 520.584 56.9198 520.367 56.5113C520.146 56.0958 519.902 55.8037 519.635 55.635C519.367 55.4663 519.075 55.4 518.756 55.436C518.445 55.4684 518.109 55.5803 517.749 55.7717C517.174 56.0773 516.805 56.4514 516.64 56.8941C516.472 57.3298 516.536 57.8246 516.83 58.3786L516.633 58.4835L515.953 57.3796L516.223 57.236C516.073 56.703 516.106 56.2058 516.322 55.7443C516.542 55.2722 516.953 54.876 517.555 54.5557C518.089 54.2722 518.603 54.1453 519.098 54.175C519.59 54.1977 520.04 54.3584 520.447 54.6569C520.854 54.9554 521.202 55.3747 521.489 55.9148C521.769 56.4411 521.92 56.96 521.944 57.4716C521.97 57.9726 521.857 58.4368 521.605 58.8641C521.356 59.2808 520.961 59.6328 520.421 59.92ZM519.144 62.7305L518.022 63.3269L514.339 56.3992L515.367 55.8524L516.229 57.4727L516.394 57.558L519.144 62.7305Z" fill="white"/>
<g clip-path="url(#clip1_45_452)">
<path d="M110.061 265.476C108.149 266.492 105.774 265.767 104.758 263.854L103.053 260.649C102.926 260.41 102.863 260.291 102.847 260.176C102.82 259.985 102.879 259.792 103.008 259.648C103.085 259.563 103.205 259.499 103.444 259.372L108.701 256.577C108.94 256.45 109.059 256.386 109.173 256.37C109.365 256.343 109.558 256.402 109.701 256.532C109.787 256.609 109.851 256.728 109.978 256.967L111.682 260.173C112.699 262.085 111.973 264.459 110.061 265.476ZM110.061 265.476L110.981 267.207M110.148 257.288L111.591 256.521C111.859 256.378 111.994 256.306 112.123 256.294C112.296 256.277 112.468 256.33 112.602 256.44C112.702 256.523 112.773 256.657 112.916 256.926L113.07 257.214C113.355 257.751 113.498 258.019 113.556 258.271C113.713 258.953 113.495 259.668 112.983 260.146C112.794 260.322 112.525 260.464 111.989 260.75M103.224 260.969L101.781 261.736C101.512 261.879 101.378 261.951 101.295 262.051C101.185 262.185 101.132 262.357 101.149 262.529C101.161 262.659 101.233 262.793 101.376 263.062L101.529 263.351C101.815 263.887 101.957 264.156 102.133 264.344C102.611 264.857 103.326 265.075 104.008 264.917C104.26 264.859 104.528 264.717 105.065 264.431M109.58 270.913L114.837 268.117C114.979 268.042 115.033 267.866 114.957 267.724C114.355 266.591 112.948 266.161 111.815 266.764L110.148 267.65C109.015 268.252 108.584 269.659 109.187 270.792C109.262 270.934 109.438 270.988 109.58 270.913Z" stroke="#FF5555" stroke-width="1.30704" stroke-linecap="round" stroke-linejoin="round"/>
</g>
<circle cx="109.141" cy="263.745" r="15.3578" transform="rotate(-28 109.141 263.745)" stroke="#FF5555" stroke-width="0.653521"/>
<path d="M131.427 245.894L129.682 246.822L129.025 238.245L131.248 237.063L138.012 242.393L136.226 243.343L131.945 239.903L130.945 239.049L130.831 239.11L130.979 240.417L131.427 245.894ZM135.429 241.794L130.527 244.401L129.781 242.999L134.683 240.392L135.429 241.794ZM141.204 240.829C140.615 241.142 140.041 241.305 139.48 241.319C138.919 241.333 138.41 241.204 137.954 240.931C137.502 240.648 137.13 240.233 136.839 239.686C136.544 239.132 136.408 238.591 136.43 238.065C136.455 237.527 136.63 237.03 136.956 236.573C137.281 236.116 137.738 235.73 138.327 235.417C138.887 235.119 139.429 234.951 139.951 234.914C140.472 234.876 140.941 234.964 141.357 235.178C141.769 235.386 142.095 235.714 142.334 236.164L142.412 236.31L140.864 237.133L140.82 237.05C140.643 236.717 140.405 236.546 140.107 236.536C139.805 236.519 139.45 236.619 139.041 236.836C138.577 237.083 138.286 237.362 138.167 237.674C138.056 237.982 138.129 238.378 138.387 238.863C138.637 239.334 138.923 239.612 139.244 239.699C139.569 239.775 139.963 239.69 140.427 239.443C140.836 239.226 141.119 238.991 141.278 238.738C141.433 238.478 141.422 238.182 141.245 237.849L141.201 237.766L142.748 236.943L142.826 237.089C143.065 237.539 143.157 237.996 143.102 238.461C143.043 238.918 142.853 239.353 142.53 239.764C142.207 240.176 141.765 240.531 141.204 240.829ZM150.471 235.768L148.913 236.597L147.466 233.875C147.234 233.439 146.968 233.19 146.668 233.127C146.372 233.054 145.978 233.148 145.486 233.409C145.14 233.593 144.892 233.787 144.743 233.991C144.594 234.195 144.529 234.416 144.549 234.654C144.565 234.885 144.651 235.146 144.805 235.437L144.577 235.558L144.062 234.54L144.353 234.385C144.25 234.058 144.21 233.724 144.233 233.383C144.256 233.042 144.371 232.714 144.577 232.401C144.79 232.083 145.118 231.806 145.561 231.571C146.025 231.324 146.463 231.211 146.874 231.233C147.285 231.254 147.651 231.383 147.973 231.621C148.294 231.858 148.562 232.178 148.775 232.58L150.471 235.768ZM146.192 238.044L144.634 238.872L140.934 231.913L142.492 231.085L146.192 238.044ZM152.815 234.522L151.257 235.35L148.49 230.147L150.048 229.318L152.815 234.522ZM149.767 228.789L148.209 229.617L147.557 228.391L149.115 227.563L149.767 228.789ZM156.449 232.723C155.874 233.029 155.313 233.202 154.767 233.244C154.221 233.286 153.72 233.17 153.264 232.898C152.808 232.625 152.418 232.184 152.094 231.574C151.8 231.02 151.667 230.478 151.696 229.948C151.721 229.41 151.889 228.917 152.2 228.467C152.519 228.013 152.965 227.634 153.54 227.328C154.108 227.026 154.655 226.86 155.18 226.829C155.712 226.795 156.198 226.906 156.636 227.161C157.07 227.41 157.43 227.804 157.718 228.345C157.765 228.435 157.806 228.519 157.84 228.599C157.873 228.679 157.907 228.768 157.941 228.865L153.267 231.35L152.831 230.53L156.404 228.63L156.321 229.327C156.285 229.258 156.25 229.192 156.216 229.129C156.183 229.067 156.15 229.005 156.117 228.942C155.907 228.548 155.649 228.321 155.342 228.262C155.036 228.203 154.64 228.302 154.155 228.56C153.629 228.84 153.317 229.139 153.22 229.457C153.119 229.768 153.186 230.146 153.422 230.589L153.632 230.983C153.867 231.427 154.144 231.697 154.462 231.794C154.777 231.884 155.201 231.788 155.734 231.504C156.191 231.261 156.482 231.031 156.606 230.814C156.73 230.597 156.734 230.378 156.616 230.156L156.561 230.052L158.119 229.224L158.179 229.338C158.378 229.712 158.441 230.105 158.367 230.517C158.293 230.93 158.092 231.329 157.765 231.717C157.441 232.093 157.003 232.429 156.449 232.723ZM163.732 228.717L161.811 229.739L156.676 225.794L158.411 224.872L161.929 227.731L162.033 227.675L161.641 223.154L163.344 222.249L163.732 228.717ZM169.34 225.868C168.766 226.174 168.205 226.348 167.659 226.389C167.113 226.431 166.612 226.316 166.156 226.043C165.7 225.77 165.31 225.329 164.986 224.72C164.691 224.166 164.558 223.624 164.587 223.093C164.612 222.556 164.781 222.062 165.092 221.612C165.411 221.159 165.857 220.779 166.432 220.474C167 220.172 167.546 220.005 168.072 219.975C168.604 219.94 169.089 220.051 169.527 220.307C169.962 220.555 170.322 220.95 170.609 221.49C170.657 221.58 170.698 221.665 170.732 221.745C170.765 221.825 170.799 221.913 170.833 222.011L166.159 224.496L165.723 223.675L169.296 221.775L169.213 222.472C169.176 222.403 169.141 222.337 169.108 222.275C169.075 222.212 169.042 222.15 169.009 222.088C168.799 221.693 168.541 221.466 168.234 221.407C167.927 221.348 167.532 221.448 167.047 221.705C166.521 221.985 166.209 222.284 166.112 222.602C166.011 222.914 166.078 223.291 166.314 223.734L166.523 224.129C166.759 224.572 167.036 224.842 167.354 224.939C167.669 225.03 168.093 224.933 168.626 224.65C169.083 224.407 169.373 224.177 169.498 223.959C169.622 223.742 169.625 223.523 169.508 223.301L169.452 223.198L171.01 222.369L171.071 222.483C171.27 222.857 171.332 223.25 171.258 223.663C171.185 224.075 170.984 224.475 170.657 224.862C170.333 225.238 169.894 225.574 169.34 225.868ZM182.243 218.875L180.685 219.703L179.238 216.982C179.01 216.552 178.762 216.294 178.493 216.206C178.224 216.118 177.865 216.193 177.414 216.433C176.944 216.683 176.675 216.955 176.609 217.247C176.549 217.537 176.639 217.906 176.879 218.356L176.681 218.461L176.037 217.551L176.339 217.391C176.222 217.071 176.165 216.746 176.167 216.417C176.176 216.083 176.277 215.763 176.469 215.457C176.665 215.139 176.984 214.863 177.427 214.627C177.877 214.388 178.296 214.281 178.682 214.307C179.076 214.328 179.428 214.456 179.739 214.69C180.05 214.925 180.31 215.239 180.52 215.634L182.243 218.875ZM174.308 223.094L172.75 223.922L169.983 218.719L171.427 217.951L172.289 219.571L172.43 219.562L174.308 223.094ZM178.276 220.984L176.718 221.813L175.271 219.091C175.043 218.662 174.794 218.403 174.525 218.315C174.256 218.227 173.897 218.303 173.447 218.542C172.969 218.796 172.7 219.068 172.641 219.357C172.582 219.646 172.672 220.016 172.911 220.466L172.714 220.571L172.069 219.635L172.35 219.485C172.243 219.169 172.193 218.849 172.199 218.526C172.201 218.196 172.295 217.88 172.481 217.577C172.662 217.267 172.971 216.997 173.408 216.765C173.858 216.525 174.274 216.424 174.658 216.46C175.048 216.492 175.395 216.627 175.699 216.865C176.003 217.103 176.257 217.412 176.459 217.793L176.553 217.744L178.276 220.984ZM185.853 217.088C185.278 217.394 184.718 217.568 184.172 217.609C183.625 217.651 183.124 217.536 182.669 217.263C182.213 216.99 181.823 216.549 181.499 215.94C181.204 215.386 181.071 214.844 181.1 214.313C181.125 213.776 181.294 213.282 181.605 212.832C181.923 212.379 182.37 211.999 182.945 211.694C183.513 211.392 184.059 211.225 184.585 211.195C185.117 211.16 185.602 211.271 186.04 211.527C186.474 211.775 186.835 212.17 187.122 212.71C187.17 212.8 187.211 212.885 187.244 212.965C187.278 213.044 187.312 213.133 187.346 213.23L182.672 215.716L182.236 214.895L185.809 212.995L185.726 213.692C185.689 213.623 185.654 213.557 185.621 213.495C185.588 213.432 185.555 213.37 185.522 213.308C185.312 212.913 185.054 212.686 184.747 212.627C184.44 212.568 184.044 212.668 183.56 212.925C183.033 213.205 182.722 213.504 182.624 213.822C182.523 214.134 182.591 214.511 182.826 214.954L183.036 215.349C183.272 215.792 183.549 216.062 183.867 216.159C184.182 216.25 184.605 216.153 185.139 215.87C185.596 215.627 185.886 215.397 186.011 215.179C186.135 214.962 186.138 214.743 186.02 214.521L185.965 214.418L187.523 213.589L187.584 213.703C187.783 214.077 187.845 214.47 187.771 214.883C187.697 215.295 187.497 215.695 187.17 216.082C186.846 216.458 186.407 216.794 185.853 217.088ZM195.017 212.083L193.459 212.911L192.012 210.19C191.788 209.767 191.53 209.518 191.241 209.441C190.948 209.357 190.562 209.442 190.084 209.696C189.586 209.961 189.291 210.251 189.201 210.565C189.114 210.869 189.188 211.243 189.424 211.686L189.226 211.791L188.593 210.875L188.884 210.721C188.778 210.404 188.736 210.075 188.759 209.734C188.778 209.387 188.891 209.056 189.097 208.742C189.307 208.417 189.64 208.134 190.097 207.891C190.568 207.64 191.009 207.526 191.42 207.547C191.827 207.561 192.19 207.684 192.508 207.915C192.826 208.145 193.088 208.454 193.294 208.842L195.017 212.083ZM190.821 214.314L189.263 215.142L186.496 209.939L187.94 209.171L188.801 210.791L188.943 210.782L190.821 214.314ZM199.472 209.714L198.184 210.399C197.574 210.723 197.017 210.828 196.513 210.714C196.008 210.601 195.581 210.215 195.231 209.557L192.929 205.226L194.487 204.398L196.696 208.552C196.835 208.815 196.985 208.962 197.143 208.994C197.305 209.014 197.521 208.953 197.791 208.809L198.726 208.312L199.472 209.714ZM197.39 205.798L193.329 207.958L192.644 206.67L196.705 204.51L197.39 205.798ZM202.738 208.11C201.866 208.574 201.107 208.769 200.464 208.694C199.816 208.612 199.332 208.269 199.012 207.667L198.995 207.636L200.553 206.808L200.603 206.901C200.728 207.136 200.896 207.251 201.106 207.246C201.32 207.23 201.648 207.105 202.091 206.869C202.507 206.648 202.762 206.468 202.857 206.329C202.955 206.179 202.963 206.028 202.882 205.876C202.805 205.73 202.699 205.657 202.566 205.657C202.429 205.65 202.197 205.707 201.871 205.827L200.312 206.429C199.763 206.65 199.284 206.718 198.875 206.634C198.473 206.546 198.154 206.28 197.919 205.837C197.757 205.532 197.701 205.211 197.752 204.873C197.8 204.528 197.972 204.183 198.269 203.839C198.568 203.484 199.016 203.148 199.612 202.832C200.179 202.53 200.699 202.347 201.171 202.282C201.647 202.207 202.063 202.256 202.422 202.43C202.781 202.603 203.072 202.901 203.297 203.323L203.314 203.355L201.756 204.183L201.723 204.121C201.645 203.975 201.551 203.874 201.441 203.817C201.334 203.75 201.181 203.738 200.983 203.781C200.791 203.821 200.535 203.926 200.217 204.095C199.829 204.301 199.59 204.478 199.499 204.624C199.404 204.763 199.401 204.916 199.489 205.082C199.559 205.213 199.664 205.286 199.805 205.3C199.949 205.304 200.203 205.239 200.568 205.107L201.752 204.651C202.485 204.359 203.061 204.257 203.481 204.345C203.9 204.433 204.224 204.691 204.452 205.121C204.625 205.446 204.673 205.785 204.594 206.138C204.515 206.491 204.322 206.838 204.015 207.179C203.704 207.513 203.278 207.823 202.738 208.11Z" fill="white"/>
<path d="M142.833 260.554L138.792 262.702L135.092 255.744L138.987 253.673C139.437 253.433 139.853 253.297 140.234 253.262C140.623 253.225 140.968 253.29 141.271 253.457C141.58 253.622 141.832 253.887 142.027 254.254C142.245 254.663 142.308 255.073 142.216 255.486C142.132 255.895 141.839 256.273 141.339 256.618L141.378 256.691C142.01 256.444 142.553 256.395 143.006 256.545C143.455 256.688 143.801 256.988 144.044 257.445C144.254 257.84 144.349 258.229 144.331 258.612C144.313 258.995 144.178 259.35 143.926 259.68C143.675 260.009 143.31 260.3 142.833 260.554ZM138.247 258.996L139.368 261.104L142.172 259.613C142.588 259.392 142.852 259.145 142.964 258.872C143.08 258.589 143.038 258.26 142.839 257.886C142.644 257.519 142.4 257.311 142.108 257.262C141.819 257.203 141.467 257.284 141.051 257.505L138.247 258.996ZM136.739 256.16L137.755 258.071L140.383 256.674C140.778 256.464 141.032 256.232 141.144 255.976C141.254 255.714 141.222 255.42 141.049 255.094C140.876 254.769 140.655 254.58 140.387 254.527C140.116 254.467 139.786 254.54 139.398 254.746L136.739 256.16ZM148.444 257.704C147.883 258.002 147.336 258.16 146.803 258.176C146.271 258.193 145.78 258.063 145.331 257.787C144.889 257.507 144.517 257.083 144.215 256.515C143.928 255.975 143.791 255.443 143.806 254.92C143.828 254.394 143.988 253.909 144.286 253.466C144.58 253.017 145.007 252.643 145.568 252.345C146.101 252.062 146.62 251.91 147.125 251.89C147.633 251.86 148.095 251.969 148.512 252.219C148.932 252.457 149.282 252.84 149.561 253.366C149.609 253.456 149.652 253.544 149.689 253.631C149.723 253.711 149.753 253.793 149.779 253.876L145.064 256.383L144.733 255.76L148.711 253.645L148.624 254.184C148.594 254.111 148.563 254.043 148.53 253.981C148.493 253.912 148.456 253.843 148.419 253.773C148.165 253.296 147.839 253.016 147.44 252.935C147.045 252.843 146.571 252.944 146.017 253.239C145.4 253.567 145.036 253.942 144.924 254.366C144.812 254.79 144.897 255.268 145.181 255.802L145.325 256.072C145.612 256.612 145.962 256.954 146.376 257.098C146.79 257.242 147.309 257.148 147.932 256.817C148.472 256.53 148.816 256.24 148.963 255.949C149.113 255.647 149.108 255.344 148.946 255.039L148.901 254.956L150.023 254.359L150.073 254.453C150.268 254.82 150.327 255.206 150.249 255.611C150.175 256.006 149.983 256.388 149.673 256.757C149.366 257.116 148.956 257.431 148.444 257.704ZM154.394 254.54C153.563 254.982 152.835 255.165 152.208 255.089C151.589 255.01 151.121 254.673 150.804 254.077L150.788 254.046L151.909 253.45L151.954 253.533C152.134 253.872 152.37 254.049 152.661 254.062C152.956 254.066 153.374 253.923 153.914 253.636C154.419 253.368 154.734 253.133 154.859 252.934C154.987 252.724 154.991 252.504 154.869 252.276C154.755 252.061 154.601 251.947 154.408 251.935C154.222 251.918 153.929 251.985 153.529 252.136L152.017 252.7C151.492 252.899 151.034 252.965 150.643 252.897C150.248 252.823 149.935 252.568 149.703 252.131C149.541 251.827 149.489 251.512 149.548 251.188C149.603 250.857 149.775 250.53 150.065 250.207C150.355 249.884 150.764 249.582 151.29 249.303C151.816 249.023 152.303 248.853 152.75 248.792C153.205 248.728 153.606 248.782 153.954 248.952C154.309 249.118 154.595 249.406 154.813 249.814L154.829 249.846L153.718 250.436L153.685 250.374C153.578 250.173 153.446 250.026 153.289 249.931C153.133 249.837 152.929 249.812 152.677 249.857C152.429 249.892 152.114 250.01 151.734 250.212C151.256 250.467 150.953 250.699 150.825 250.909C150.697 251.119 150.697 251.345 150.826 251.588C150.933 251.788 151.079 251.897 151.266 251.913C151.452 251.93 151.75 251.864 152.161 251.717L153.443 251.248C154.093 251.001 154.623 250.91 155.031 250.977C155.44 251.044 155.758 251.292 155.987 251.722C156.156 252.04 156.203 252.37 156.127 252.713C156.048 253.048 155.861 253.374 155.568 253.69C155.27 253.999 154.879 254.282 154.394 254.54ZM160.944 250.924L159.76 251.554C159.206 251.848 158.695 251.947 158.225 251.85C157.763 251.749 157.367 251.387 157.035 250.764L154.616 246.215L155.728 245.624L158.113 250.111C158.283 250.429 158.473 250.604 158.684 250.633C158.892 250.656 159.155 250.583 159.474 250.414L160.408 249.917L160.944 250.924ZM158.696 246.697L154.843 248.746L154.346 247.811L158.199 245.762L158.696 246.697ZM164.542 249.011L163.421 249.607L159.721 242.648L160.842 242.052L164.542 249.011ZM167.315 243.953L162.278 246.631L161.748 245.634L166.785 242.956L167.315 243.953ZM165.792 240.712L160.599 243.474L160.063 242.466L165.257 239.705L165.792 240.712ZM170.912 245.624L169.79 246.22L167.046 241.058L168.168 240.462L170.912 245.624ZM167.847 239.859L166.725 240.456L166.09 239.261L167.212 238.665L167.847 239.859ZM177.342 242.205L176.22 242.802L174.729 239.998C174.471 239.513 174.16 239.212 173.796 239.095C173.438 238.974 172.99 239.057 172.449 239.344C171.889 239.642 171.55 240.009 171.435 240.443C171.323 240.867 171.416 241.359 171.714 241.92L171.522 242.035L170.929 241.045L171.158 240.924C171.058 240.603 171.024 240.271 171.054 239.926C171.087 239.571 171.21 239.235 171.423 238.917C171.639 238.589 171.966 238.309 172.402 238.077C172.88 237.823 173.329 237.708 173.751 237.733C174.173 237.757 174.546 237.892 174.872 238.136C175.204 238.377 175.477 238.698 175.69 239.1L177.342 242.205ZM173.073 244.475L171.951 245.072L169.206 239.91L170.234 239.363L171.096 240.983L171.217 240.985L173.073 244.475ZM183.223 239.078L182.194 239.625L181.488 238.296L181.398 238.303L180.459 236.537C180.231 236.108 179.969 235.866 179.673 235.81C179.38 235.744 178.984 235.843 178.486 236.108C178.008 236.362 177.696 236.635 177.549 236.926C177.401 237.217 177.429 237.554 177.632 237.934L177.654 237.976L176.542 238.567L176.52 238.525C176.31 238.131 176.228 237.726 176.274 237.311C176.316 236.889 176.483 236.484 176.775 236.098C177.074 235.708 177.497 235.368 178.044 235.077C178.591 234.786 179.088 234.642 179.533 234.645C179.982 234.637 180.374 234.749 180.71 234.979C181.052 235.205 181.334 235.526 181.555 235.942L183.223 239.078ZM179.913 240.972C179.38 241.255 178.891 241.364 178.447 241.298C178.007 241.221 177.674 240.971 177.45 240.549C177.306 240.279 177.252 240.019 177.288 239.769C177.327 239.508 177.444 239.26 177.638 239.024C177.832 238.787 178.088 238.558 178.405 238.336L180.718 236.773L181.071 237.438L179.069 238.809C178.797 238.998 178.612 239.176 178.514 239.344C178.42 239.5 178.426 239.679 178.533 239.88C178.643 240.088 178.799 240.205 179 240.231C179.203 240.247 179.465 240.171 179.783 240.001C180.178 239.791 180.495 239.561 180.734 239.309C180.97 239.051 181.114 238.77 181.166 238.467C181.218 238.164 181.153 237.843 180.973 237.503L181.129 237.447L181.582 238.299L181.437 238.376C181.53 238.886 181.446 239.37 181.184 239.829C180.925 240.278 180.501 240.659 179.913 240.972ZM189.615 235.68L188.493 236.276L187.002 233.472C186.744 232.987 186.433 232.686 186.069 232.569C185.711 232.448 185.263 232.531 184.723 232.818C184.162 233.117 183.824 233.483 183.708 233.917C183.596 234.341 183.689 234.834 183.987 235.394L183.795 235.51L183.202 234.519L183.431 234.398C183.331 234.078 183.297 233.745 183.327 233.401C183.36 233.046 183.483 232.709 183.696 232.392C183.913 232.063 184.239 231.783 184.675 231.551C185.153 231.297 185.602 231.183 186.024 231.207C186.446 231.232 186.819 231.366 187.145 231.611C187.477 231.851 187.75 232.173 187.963 232.574L189.615 235.68ZM185.346 237.95L184.224 238.546L181.479 233.384L182.508 232.837L183.369 234.457L183.49 234.46L185.346 237.95ZM193.276 233.866C192.709 234.168 192.155 234.32 191.614 234.323C191.07 234.319 190.574 234.179 190.125 233.903C189.679 233.616 189.317 233.209 189.037 232.683C188.75 232.143 188.613 231.611 188.628 231.088C188.65 230.561 188.814 230.075 189.118 229.629C189.419 229.176 189.853 228.798 190.421 228.496C190.94 228.22 191.449 228.065 191.946 228.032C192.443 227.998 192.893 228.083 193.294 228.287C193.699 228.481 194.018 228.795 194.25 229.232L194.305 229.336L193.193 229.927L193.16 229.864C192.947 229.463 192.65 229.238 192.27 229.192C191.886 229.138 191.442 229.246 190.936 229.515C190.354 229.824 190.004 230.192 189.885 230.62C189.762 231.04 189.85 231.531 190.148 232.092C190.443 232.646 190.8 232.993 191.221 233.133C191.639 233.267 192.138 233.179 192.72 232.87C193.225 232.601 193.565 232.296 193.739 231.955C193.909 231.607 193.887 231.232 193.674 230.83L193.635 230.757L194.747 230.167L194.807 230.281C195.036 230.71 195.119 231.15 195.056 231.601C195.001 232.048 194.82 232.468 194.514 232.861C194.208 233.255 193.796 233.59 193.276 233.866ZM199.382 230.619C198.821 230.918 198.274 231.075 197.742 231.092C197.209 231.109 196.718 230.979 196.269 230.703C195.827 230.423 195.455 229.999 195.153 229.431C194.866 228.891 194.73 228.359 194.745 227.836C194.767 227.309 194.926 226.825 195.224 226.382C195.518 225.933 195.945 225.559 196.506 225.261C197.039 224.977 197.558 224.826 198.063 224.806C198.571 224.776 199.033 224.885 199.45 225.134C199.87 225.373 200.22 225.755 200.5 226.282C200.548 226.372 200.59 226.46 200.627 226.547C200.661 226.627 200.691 226.708 200.718 226.792L196.002 229.299L195.671 228.676L199.649 226.561L199.562 227.1C199.533 227.027 199.501 226.959 199.468 226.897C199.431 226.828 199.394 226.758 199.357 226.689C199.103 226.211 198.777 225.932 198.379 225.851C197.983 225.759 197.509 225.86 196.955 226.155C196.339 226.482 195.974 226.858 195.862 227.282C195.75 227.706 195.836 228.184 196.119 228.717L196.263 228.987C196.55 229.527 196.901 229.869 197.315 230.013C197.729 230.157 198.247 230.064 198.871 229.732C199.411 229.445 199.754 229.156 199.901 228.865C200.052 228.563 200.046 228.259 199.884 227.955L199.84 227.872L200.961 227.275L201.011 227.369C201.206 227.736 201.265 228.122 201.187 228.527C201.113 228.922 200.921 229.304 200.611 229.673C200.304 230.031 199.895 230.347 199.382 230.619ZM205.339 227.319L204.092 227.982L203.498 219.372L205.076 218.532L211.882 223.84L210.615 224.514L205.8 220.745L204.87 219.974L204.787 220.018L204.907 221.22L205.339 227.319ZM209.311 222.889L204.668 225.357L204.133 224.35L208.775 221.881L209.311 222.889ZM215.739 221.923C215.164 222.228 214.618 222.337 214.1 222.248C213.582 222.159 213.146 221.907 212.791 221.491L212.553 221.618L212 220.58L212.198 220.475C212.382 220.821 212.611 221.076 212.885 221.241C213.156 221.4 213.454 221.468 213.78 221.445C214.109 221.413 214.453 221.3 214.813 221.109C215.187 220.91 215.475 220.691 215.675 220.451C215.88 220.2 215.987 219.917 215.996 219.601C216.006 219.285 215.902 218.922 215.685 218.514C215.464 218.098 215.22 217.806 214.952 217.638C214.685 217.469 214.392 217.403 214.074 217.439C213.763 217.471 213.427 217.583 213.067 217.774C212.492 218.08 212.122 218.454 211.958 218.897C211.79 219.332 211.853 219.827 212.148 220.381L211.951 220.486L211.27 219.382L211.54 219.239C211.39 218.706 211.423 218.208 211.64 217.747C211.86 217.275 212.271 216.879 212.873 216.558C213.406 216.275 213.921 216.148 214.416 216.178C214.908 216.2 215.357 216.361 215.765 216.659C216.172 216.958 216.519 217.377 216.807 217.917C217.086 218.444 217.238 218.963 217.261 219.474C217.288 219.975 217.175 220.439 216.923 220.867C216.673 221.283 216.279 221.635 215.739 221.923ZM214.462 224.733L213.34 225.329L209.657 218.402L210.685 217.855L211.546 219.475L211.712 219.561L214.462 224.733ZM222.291 218.439C221.716 218.744 221.17 218.853 220.652 218.764C220.134 218.675 219.698 218.423 219.344 218.007L219.105 218.134L218.553 217.096L218.75 216.991C218.934 217.337 219.163 217.592 219.438 217.758C219.708 217.916 220.006 217.984 220.332 217.961C220.661 217.929 221.005 217.816 221.366 217.625C221.739 217.426 222.027 217.207 222.228 216.967C222.432 216.716 222.539 216.433 222.549 216.117C222.558 215.801 222.454 215.438 222.237 215.03C222.016 214.614 221.772 214.322 221.505 214.154C221.238 213.985 220.945 213.919 220.626 213.955C220.315 213.987 219.979 214.099 219.619 214.29C219.044 214.596 218.675 214.97 218.511 215.413C218.343 215.848 218.406 216.343 218.7 216.897L218.503 217.002L217.823 215.898L218.093 215.755C217.943 215.222 217.976 214.724 218.192 214.263C218.412 213.791 218.823 213.395 219.425 213.074C219.959 212.791 220.473 212.664 220.968 212.694C221.46 212.716 221.91 212.877 222.317 213.176C222.724 213.474 223.072 213.893 223.359 214.433C223.639 214.96 223.79 215.479 223.814 215.99C223.84 216.491 223.727 216.955 223.475 217.383C223.226 217.799 222.831 218.151 222.291 218.439ZM221.014 221.249L219.893 221.846L216.209 214.918L217.237 214.371L218.099 215.991L218.264 216.077L221.014 221.249ZM230.753 213.939C230.026 214.326 229.312 214.519 228.61 214.519C227.912 214.508 227.269 214.317 226.681 213.946C226.096 213.565 225.61 213.01 225.223 212.283C224.837 211.556 224.651 210.847 224.665 210.155C224.682 209.453 224.884 208.813 225.269 208.235C225.658 207.647 226.216 207.159 226.943 206.772C227.684 206.378 228.403 206.187 229.102 206.197C229.797 206.201 230.436 206.394 231.021 206.775C231.61 207.147 232.097 207.696 232.483 208.423C232.87 209.15 233.055 209.864 233.037 210.566C233.023 211.258 232.825 211.896 232.443 212.481C232.058 213.059 231.494 213.545 230.753 213.939ZM230.179 212.859C230.726 212.568 231.134 212.24 231.402 211.876C231.673 211.501 231.801 211.082 231.786 210.619C231.767 210.149 231.605 209.627 231.299 209.052C230.99 208.471 230.648 208.044 230.273 207.773C229.898 207.502 229.481 207.377 229.021 207.399C228.566 207.411 228.064 207.562 227.517 207.853C226.97 208.143 226.561 208.476 226.29 208.852C226.022 209.216 225.895 209.63 225.91 210.092C225.932 210.552 226.098 211.072 226.407 211.653C226.713 212.228 227.052 212.656 227.424 212.938C227.799 213.21 228.214 213.34 228.67 213.328C229.129 213.306 229.632 213.15 230.179 212.859ZM240.553 208.595L239.431 209.192L237.94 206.387C237.682 205.903 237.371 205.602 237.007 205.485C236.65 205.364 236.201 205.447 235.661 205.734C235.1 206.032 234.762 206.399 234.646 206.833C234.534 207.257 234.627 207.749 234.925 208.31L234.734 208.425L234.14 207.435L234.369 207.314C234.27 206.993 234.235 206.661 234.265 206.316C234.298 205.961 234.421 205.625 234.634 205.307C234.851 204.979 235.177 204.699 235.613 204.467C236.091 204.213 236.541 204.098 236.962 204.123C237.384 204.147 237.757 204.282 238.083 204.526C238.415 204.767 238.688 205.088 238.902 205.49L240.553 208.595ZM236.284 210.865L235.162 211.462L232.418 206.3L233.446 205.753L234.307 207.373L234.428 207.375L236.284 210.865ZM245.619 203.211L242.638 204.796L242.102 203.788L244.979 202.258C245.505 201.979 245.843 201.661 245.992 201.307C246.148 200.949 246.088 200.51 245.812 199.99C245.539 199.478 245.211 199.186 244.827 199.115C244.446 199.034 243.992 199.133 243.466 199.413L240.589 200.942L240.053 199.935L243.034 198.35C243.553 198.074 244.058 197.929 244.549 197.917C245.043 197.894 245.493 198.006 245.9 198.252C246.313 198.494 246.657 198.875 246.933 199.394C247.206 199.906 247.327 200.402 247.297 200.879C247.274 201.354 247.116 201.793 246.825 202.196C246.54 202.596 246.138 202.935 245.619 203.211ZM244.449 206.524L243.327 207.12L239.627 200.161L240.749 199.565L244.449 206.524ZM251.133 202.97L250.012 203.566L246.311 196.607L247.433 196.011L251.133 202.97ZM257.054 199.822L256.025 200.368L255.319 199.039L255.229 199.046L254.29 197.281C254.062 196.851 253.8 196.609 253.504 196.553C253.211 196.487 252.815 196.586 252.317 196.851C251.839 197.105 251.527 197.378 251.38 197.669C251.233 197.961 251.26 198.297 251.463 198.678L251.485 198.719L250.373 199.31L250.351 199.269C250.142 198.874 250.059 198.469 250.105 198.054C250.147 197.632 250.314 197.228 250.606 196.842C250.905 196.452 251.328 196.111 251.875 195.82C252.422 195.53 252.919 195.386 253.364 195.388C253.813 195.381 254.205 195.492 254.541 195.722C254.883 195.949 255.165 196.27 255.386 196.685L257.054 199.822ZM253.744 201.715C253.211 201.998 252.722 202.107 252.278 202.041C251.838 201.964 251.505 201.715 251.281 201.292C251.137 201.022 251.083 200.762 251.119 200.512C251.158 200.252 251.275 200.003 251.469 199.767C251.663 199.53 251.919 199.301 252.236 199.079L254.549 197.516L254.902 198.181L252.9 199.552C252.628 199.741 252.443 199.92 252.345 200.087C252.251 200.244 252.257 200.422 252.364 200.623C252.474 200.831 252.63 200.948 252.831 200.975C253.034 200.991 253.296 200.914 253.614 200.745C254.009 200.535 254.326 200.304 254.565 200.052C254.801 199.794 254.945 199.513 254.997 199.21C255.049 198.907 254.984 198.586 254.804 198.247L254.961 198.19L255.413 199.042L255.268 199.119C255.361 199.629 255.277 200.114 255.015 200.573C254.756 201.021 254.332 201.402 253.744 201.715ZM259.825 200.613L259.087 201.005L258.546 199.987L259.554 199.452C259.782 199.33 259.932 199.202 260.002 199.067C260.083 198.935 260.115 198.762 260.099 198.549L260.051 197.682L260.23 198.319L254.791 194.403L256.048 193.735L258.825 195.776L259.991 196.741L260.074 196.697L259.899 195.191L259.662 191.813L260.898 191.156L261.251 198.309C261.275 198.688 261.239 199.013 261.144 199.286C261.053 199.565 260.897 199.807 260.678 200.013C260.462 200.225 260.178 200.425 259.825 200.613ZM266.688 194.832C265.857 195.274 265.128 195.457 264.502 195.382C263.882 195.303 263.414 194.965 263.098 194.37L263.081 194.339L264.203 193.742L264.247 193.825C264.427 194.165 264.663 194.341 264.955 194.355C265.25 194.358 265.667 194.216 266.207 193.929C266.713 193.66 267.028 193.426 267.153 193.226C267.281 193.016 267.284 192.797 267.162 192.568C267.048 192.354 266.895 192.24 266.701 192.227C266.515 192.211 266.222 192.278 265.822 192.428L264.31 192.992C263.786 193.191 263.328 193.257 262.936 193.19C262.542 193.116 262.228 192.86 261.996 192.424C261.834 192.119 261.783 191.805 261.841 191.481C261.896 191.15 262.069 190.822 262.359 190.499C262.649 190.176 263.057 189.875 263.583 189.595C264.109 189.315 264.596 189.145 265.044 189.085C265.498 189.021 265.9 189.074 266.248 189.244C266.603 189.411 266.889 189.698 267.106 190.107L267.123 190.138L266.011 190.729L265.978 190.667C265.871 190.466 265.74 190.318 265.583 190.224C265.426 190.13 265.222 190.105 264.971 190.15C264.722 190.184 264.408 190.303 264.027 190.505C263.549 190.759 263.246 190.991 263.118 191.201C262.99 191.412 262.991 191.638 263.119 191.88C263.226 192.081 263.373 192.19 263.559 192.206C263.745 192.222 264.044 192.157 264.454 192.01L265.737 191.541C266.387 191.293 266.916 191.203 267.325 191.27C267.733 191.337 268.052 191.585 268.28 192.014C268.449 192.333 268.496 192.663 268.421 193.005C268.341 193.34 268.155 193.666 267.861 193.982C267.563 194.291 267.172 194.575 266.688 194.832ZM273.237 191.217L272.053 191.846C271.499 192.141 270.988 192.24 270.519 192.143C270.057 192.042 269.66 191.68 269.329 191.057L266.91 186.507L268.021 185.917L270.407 190.404C270.576 190.722 270.767 190.896 270.978 190.926C271.185 190.949 271.448 190.876 271.767 190.706L272.702 190.209L273.237 191.217ZM270.99 186.989L267.136 189.038L266.639 188.104L270.493 186.055L270.99 186.989ZM276.632 189.545C276.065 189.847 275.504 190.003 274.95 190.013C274.399 190.013 273.895 189.876 273.44 189.604C272.987 189.32 272.621 188.916 272.341 188.389C272.054 187.849 271.921 187.316 271.943 186.789C271.972 186.258 272.142 185.768 272.453 185.318C272.768 184.858 273.209 184.477 273.777 184.175C274.359 183.866 274.925 183.711 275.476 183.711C276.023 183.705 276.521 183.84 276.97 184.116C277.426 184.389 277.797 184.795 278.085 185.335C278.364 185.862 278.492 186.393 278.467 186.931C278.445 187.458 278.28 187.949 277.972 188.406C277.661 188.856 277.214 189.235 276.632 189.545ZM276.102 188.548C276.732 188.213 277.11 187.83 277.236 187.398C277.359 186.96 277.275 186.468 276.984 185.921C276.693 185.374 276.332 185.028 275.9 184.885C275.465 184.734 274.932 184.827 274.302 185.162C273.679 185.493 273.308 185.881 273.189 186.326C273.067 186.764 273.151 187.257 273.442 187.804C273.733 188.351 274.094 188.696 274.526 188.84C274.953 188.976 275.479 188.879 276.102 188.548ZM281.39 186.882L280.268 187.478L277.524 182.316L278.552 181.77L279.33 183.234L279.452 183.236L281.39 186.882ZM279.849 183.984L279.6 184.117L279.136 183.244L279.365 183.123C279.262 182.813 279.225 182.509 279.252 182.21C279.276 181.904 279.374 181.621 279.547 181.36C279.726 181.096 279.992 180.87 280.345 180.683C280.74 180.473 281.106 180.385 281.444 180.418C281.781 180.452 282.079 180.578 282.337 180.796C282.602 181.01 282.821 181.28 282.994 181.606L283.353 182.281L282.242 182.872L281.999 182.415C281.8 182.041 281.572 181.811 281.313 181.727C281.055 181.642 280.732 181.703 280.344 181.909C279.901 182.144 279.647 182.435 279.582 182.78C279.517 183.126 279.606 183.527 279.849 183.984ZM288.184 183.402C287.623 183.701 287.077 183.858 286.544 183.875C286.011 183.892 285.52 183.762 285.071 183.486C284.629 183.206 284.257 182.782 283.955 182.214C283.668 181.674 283.532 181.142 283.547 180.619C283.569 180.092 283.728 179.608 284.026 179.165C284.32 178.716 284.748 178.342 285.308 178.044C285.842 177.76 286.36 177.609 286.865 177.589C287.373 177.559 287.835 177.668 288.252 177.917C288.672 178.156 289.022 178.538 289.302 179.065C289.35 179.155 289.392 179.243 289.429 179.33C289.463 179.41 289.493 179.491 289.52 179.575L284.804 182.082L284.473 181.459L288.451 179.344L288.365 179.883C288.335 179.81 288.303 179.742 288.27 179.68C288.233 179.611 288.196 179.541 288.16 179.472C287.906 178.994 287.579 178.715 287.181 178.634C286.786 178.542 286.311 178.643 285.757 178.938C285.141 179.265 284.777 179.641 284.664 180.065C284.552 180.489 284.638 180.967 284.921 181.5L285.065 181.77C285.352 182.31 285.703 182.652 286.117 182.796C286.531 182.94 287.05 182.847 287.673 182.515C288.213 182.228 288.556 181.939 288.703 181.648C288.854 181.346 288.848 181.042 288.686 180.738L288.642 180.655L289.763 180.058L289.813 180.152C290.008 180.519 290.067 180.905 289.99 181.31C289.915 181.705 289.723 182.087 289.413 182.456C289.106 182.815 288.697 183.13 288.184 183.402Z" fill="white"/>
<line x1="308.912" y1="137.725" x2="307.498" y2="178.219" stroke="white" stroke-width="0.653522"/>
<path d="M470.679 267.416C469.824 267.416 469.11 267.279 468.538 267.004C467.965 266.73 467.534 266.338 467.244 265.828C466.954 265.318 466.809 264.71 466.809 264.005V259.417H468.573V263.875C468.573 264.322 468.636 264.683 468.761 264.957C468.895 265.224 469.114 265.416 469.42 265.534C469.734 265.644 470.153 265.699 470.679 265.699C471.22 265.699 471.643 265.644 471.949 265.534C472.255 265.416 472.471 265.224 472.596 264.957C472.722 264.683 472.784 264.322 472.784 263.875V259.417H474.549V264.005C474.549 264.71 474.404 265.318 474.114 265.828C473.824 266.338 473.392 266.73 472.82 267.004C472.255 267.279 471.541 267.416 470.679 267.416ZM477.202 267.298H475.437V261.405H477.202V267.298ZM477.202 260.805H475.437V259.417H477.202V260.805ZM480.36 267.298H478.596V261.805C478.596 261.334 478.71 260.923 478.937 260.57C479.172 260.209 479.517 259.927 479.972 259.723C480.435 259.519 481 259.417 481.666 259.417H482.184V260.699H481.384C480.929 260.699 480.615 260.77 480.443 260.911C480.27 261.044 480.243 261.33 480.36 261.77V262.064V267.298ZM482.184 262.864H477.761V261.405H482.184V262.864ZM484.531 267.298H482.766V261.405H484.402V263.087L484.531 263.146V267.298ZM484.531 263.887H484.178V262.969H484.507C484.562 262.648 484.668 262.362 484.825 262.111C484.99 261.852 485.209 261.652 485.484 261.511C485.758 261.362 486.092 261.287 486.484 261.287C486.931 261.287 487.288 261.381 487.554 261.57C487.829 261.75 488.029 261.997 488.154 262.311C488.28 262.617 488.342 262.962 488.342 263.346V264.322H486.578V263.711C486.578 263.381 486.503 263.146 486.354 263.005C486.213 262.856 485.962 262.781 485.601 262.781C485.209 262.781 484.931 262.871 484.766 263.052C484.609 263.232 484.531 263.511 484.531 263.887ZM490.111 269.298H489.146V267.698H490.593C490.812 267.698 490.977 267.667 491.087 267.604C491.197 267.541 491.287 267.432 491.357 267.275L491.605 266.698L491.428 267.522L488.452 261.405H490.452L491.699 264.099L492.193 265.487H492.31L492.781 264.087L493.898 261.405H495.863L492.946 267.722C492.757 268.13 492.538 268.447 492.287 268.675C492.036 268.91 491.734 269.071 491.381 269.157C491.028 269.251 490.605 269.298 490.111 269.298ZM502.22 265.122H498.714V263.534H502.031C502.526 263.534 502.886 263.448 503.114 263.275C503.349 263.095 503.467 262.758 503.467 262.264C503.467 261.785 503.349 261.456 503.114 261.275C502.886 261.095 502.526 261.005 502.031 261.005H498.714V259.417H502.22C502.831 259.417 503.361 259.531 503.808 259.758C504.255 259.978 504.6 260.299 504.843 260.723C505.094 261.146 505.219 261.66 505.219 262.264C505.219 262.867 505.094 263.385 504.843 263.816C504.6 264.24 504.255 264.565 503.808 264.793C503.361 265.012 502.831 265.122 502.22 265.122ZM499.867 267.298H498.103V259.417H499.867V267.298ZM507.61 267.298H505.845V261.405H507.48V263.087L507.61 263.146V267.298ZM507.61 263.887H507.257V262.969H507.586C507.641 262.648 507.747 262.362 507.904 262.111C508.068 261.852 508.288 261.652 508.563 261.511C508.837 261.362 509.17 261.287 509.562 261.287C510.009 261.287 510.366 261.381 510.633 261.57C510.907 261.75 511.107 261.997 511.233 262.311C511.358 262.617 511.421 262.962 511.421 263.346V264.322H509.657V263.711C509.657 263.381 509.582 263.146 509.433 263.005C509.292 262.856 509.041 262.781 508.68 262.781C508.288 262.781 508.01 262.871 507.845 263.052C507.688 263.232 507.61 263.511 507.61 263.887ZM515.189 267.416C514.538 267.416 513.962 267.306 513.46 267.087C512.958 266.867 512.57 266.53 512.295 266.075C512.021 265.62 511.884 265.048 511.884 264.357C511.884 263.73 512.021 263.189 512.295 262.734C512.57 262.271 512.95 261.915 513.436 261.664C513.93 261.413 514.503 261.287 515.154 261.287C515.797 261.287 516.358 261.397 516.836 261.617C517.322 261.836 517.699 262.162 517.965 262.593C518.232 263.016 518.365 263.534 518.365 264.146C518.365 264.248 518.361 264.342 518.353 264.428C518.346 264.514 518.334 264.608 518.318 264.71H513.025V263.781H517.071L516.671 264.357C516.671 264.279 516.671 264.205 516.671 264.134C516.671 264.063 516.671 263.993 516.671 263.922C516.671 263.475 516.55 263.154 516.307 262.958C516.064 262.762 515.667 262.664 515.119 262.664C514.523 262.664 514.107 262.781 513.872 263.016C513.636 263.244 513.519 263.609 513.519 264.11V264.557C513.519 265.059 513.636 265.428 513.872 265.663C514.107 265.891 514.526 266.004 515.13 266.004C515.648 266.004 516.013 265.938 516.224 265.804C516.436 265.671 516.542 265.479 516.542 265.228V265.11H518.306V265.24C518.306 265.663 518.177 266.04 517.918 266.369C517.659 266.698 517.295 266.957 516.824 267.145C516.362 267.326 515.816 267.416 515.189 267.416ZM529.865 267.298H528.101V264.216C528.101 263.73 528.003 263.385 527.807 263.181C527.611 262.977 527.258 262.875 526.748 262.875C526.215 262.875 525.85 262.989 525.654 263.216C525.466 263.444 525.372 263.812 525.372 264.322H525.148L525.007 263.216H525.348C525.395 262.879 525.497 262.566 525.654 262.275C525.819 261.985 526.058 261.75 526.371 261.57C526.693 261.381 527.105 261.287 527.607 261.287C528.116 261.287 528.536 261.389 528.865 261.593C529.203 261.797 529.453 262.075 529.618 262.428C529.783 262.781 529.865 263.181 529.865 263.628V267.298ZM520.878 267.298H519.113V261.405H520.749V263.24L520.878 263.299V267.298ZM525.372 267.298H523.607V264.216C523.607 263.73 523.509 263.385 523.313 263.181C523.117 262.977 522.764 262.875 522.254 262.875C521.713 262.875 521.349 262.989 521.16 263.216C520.972 263.444 520.878 263.812 520.878 264.322H520.654L520.525 263.193H520.843C520.898 262.864 521.003 262.558 521.16 262.275C521.317 261.985 521.549 261.75 521.854 261.57C522.16 261.381 522.56 261.287 523.054 261.287C523.564 261.287 523.98 261.393 524.301 261.605C524.631 261.817 524.874 262.099 525.03 262.452C525.187 262.805 525.266 263.197 525.266 263.628H525.372V267.298ZM532.526 267.298H530.762V261.405H532.526V267.298ZM532.526 260.805H530.762V259.417H532.526V260.805ZM535.885 267.416C535.336 267.416 534.877 267.314 534.509 267.11C534.148 266.898 533.878 266.616 533.697 266.263C533.525 265.91 533.438 265.514 533.438 265.075V261.405H535.203V264.487C535.203 264.957 535.317 265.302 535.544 265.522C535.771 265.734 536.164 265.84 536.72 265.84C537.301 265.84 537.705 265.726 537.932 265.499C538.167 265.263 538.285 264.895 538.285 264.393L538.508 264.381L538.638 265.499H538.308C538.261 265.828 538.144 266.138 537.955 266.428C537.775 266.718 537.512 266.957 537.167 267.145C536.83 267.326 536.403 267.416 535.885 267.416ZM540.049 267.298H538.402V265.475L538.285 265.416V261.405H540.049V267.298ZM551.703 267.298H549.939V264.216C549.939 263.73 549.841 263.385 549.645 263.181C549.449 262.977 549.096 262.875 548.586 262.875C548.053 262.875 547.688 262.989 547.492 263.216C547.304 263.444 547.21 263.812 547.21 264.322H546.986L546.845 263.216H547.186C547.233 262.879 547.335 262.566 547.492 262.275C547.657 261.985 547.896 261.75 548.21 261.57C548.531 261.381 548.943 261.287 549.445 261.287C549.954 261.287 550.374 261.389 550.703 261.593C551.041 261.797 551.292 262.075 551.456 262.428C551.621 262.781 551.703 263.181 551.703 263.628V267.298ZM542.716 267.298H540.952V261.405H542.587V263.24L542.716 263.299V267.298ZM547.21 267.298H545.445V264.216C545.445 263.73 545.347 263.385 545.151 263.181C544.955 262.977 544.602 262.875 544.092 262.875C543.551 262.875 543.187 262.989 542.998 263.216C542.81 263.444 542.716 263.812 542.716 264.322H542.493L542.363 263.193H542.681C542.736 262.864 542.842 262.558 542.998 262.275C543.155 261.985 543.387 261.75 543.692 261.57C543.998 261.381 544.398 261.287 544.892 261.287C545.402 261.287 545.818 261.393 546.139 261.605C546.469 261.817 546.712 262.099 546.869 262.452C547.025 262.805 547.104 263.197 547.104 263.628H547.21V267.298Z" fill="black"/>
<path d="M468.049 285.904H466.92V278.898H468.049V285.904ZM472.336 283.091H467.265V282.087H472.336V283.091ZM472.493 279.912H467.265V278.898H472.493V279.912ZM474.462 285.904H473.332V280.707H474.368V282.181L474.462 282.234V285.904ZM474.462 282.986H474.211V282.108H474.441C474.49 281.822 474.587 281.568 474.734 281.345C474.88 281.115 475.075 280.934 475.319 280.801C475.57 280.669 475.873 280.602 476.229 280.602C476.626 280.602 476.95 280.686 477.201 280.853C477.452 281.021 477.634 281.244 477.745 281.523C477.864 281.801 477.923 282.105 477.923 282.432V283.112H476.804V282.652C476.804 282.275 476.72 282 476.553 281.826C476.386 281.652 476.107 281.564 475.717 281.564C475.27 281.564 474.95 281.686 474.755 281.93C474.559 282.174 474.462 282.526 474.462 282.986ZM481.246 286.008C480.682 286.008 480.187 285.904 479.761 285.695C479.336 285.486 479.005 285.179 478.768 284.775C478.538 284.37 478.423 283.882 478.423 283.311C478.423 282.767 478.538 282.293 478.768 281.889C479.005 281.484 479.333 281.171 479.751 280.948C480.169 280.717 480.661 280.602 481.225 280.602C481.762 280.602 482.233 280.7 482.637 280.895C483.048 281.083 483.365 281.362 483.588 281.732C483.818 282.094 483.933 282.54 483.933 283.07C483.933 283.161 483.93 283.248 483.923 283.332C483.916 283.408 483.906 283.485 483.892 283.562H479.144V282.934H483.149L482.856 283.321C482.863 283.251 482.867 283.185 482.867 283.122C482.867 283.053 482.867 282.983 482.867 282.913C482.867 282.432 482.728 282.077 482.449 281.847C482.177 281.61 481.762 281.491 481.204 281.491C480.584 281.491 480.141 281.634 479.876 281.92C479.612 282.206 479.479 282.617 479.479 283.154V283.426C479.479 283.969 479.612 284.384 479.876 284.67C480.141 284.956 480.587 285.099 481.215 285.099C481.759 285.099 482.149 285.015 482.386 284.848C482.63 284.673 482.752 284.433 482.752 284.126V284.043H483.881V284.137C483.881 284.506 483.766 284.834 483.536 285.12C483.313 285.398 483.003 285.618 482.606 285.778C482.215 285.932 481.762 286.008 481.246 286.008ZM487.393 286.008C486.829 286.008 486.334 285.904 485.909 285.695C485.483 285.486 485.152 285.179 484.915 284.775C484.685 284.37 484.57 283.882 484.57 283.311C484.57 282.767 484.685 282.293 484.915 281.889C485.152 281.484 485.48 281.171 485.898 280.948C486.316 280.717 486.808 280.602 487.372 280.602C487.909 280.602 488.38 280.7 488.784 280.895C489.195 281.083 489.513 281.362 489.736 281.732C489.966 282.094 490.081 282.54 490.081 283.07C490.081 283.161 490.077 283.248 490.07 283.332C490.063 283.408 490.053 283.485 490.039 283.562H485.292V282.934H489.296L489.004 283.321C489.011 283.251 489.014 283.185 489.014 283.122C489.014 283.053 489.014 282.983 489.014 282.913C489.014 282.432 488.875 282.077 488.596 281.847C488.324 281.61 487.909 281.491 487.352 281.491C486.731 281.491 486.289 281.634 486.024 281.92C485.759 282.206 485.626 282.617 485.626 283.154V283.426C485.626 283.969 485.759 284.384 486.024 284.67C486.289 284.956 486.735 285.099 487.362 285.099C487.906 285.099 488.296 285.015 488.533 284.848C488.777 284.673 488.899 284.433 488.899 284.126V284.043H490.028V284.137C490.028 284.506 489.913 284.834 489.683 285.12C489.46 285.398 489.15 285.618 488.753 285.778C488.362 285.932 487.909 286.008 487.393 286.008ZM496.195 285.904H495.077V278.898H496.195V285.904ZM498.945 279.912H492.316V278.898H498.945V279.912ZM500.735 285.904H499.606V280.707H500.641V282.181L500.735 282.234V285.904ZM500.735 282.986H500.484V282.108H500.714C500.763 281.822 500.861 281.568 501.007 281.345C501.154 281.115 501.349 280.934 501.593 280.801C501.844 280.669 502.147 280.602 502.502 280.602C502.9 280.602 503.224 280.686 503.475 280.853C503.726 281.021 503.907 281.244 504.019 281.523C504.137 281.801 504.196 282.105 504.196 282.432V283.112H503.078V282.652C503.078 282.275 502.994 282 502.827 281.826C502.659 281.652 502.38 281.564 501.99 281.564C501.544 281.564 501.223 281.686 501.028 281.93C500.833 282.174 500.735 282.526 500.735 282.986ZM506.035 285.904H504.906V280.707H506.035V285.904ZM506.035 280.101H504.906V278.898H506.035V280.101ZM511.995 285.904H510.96V284.565L510.887 284.534V282.756C510.887 282.324 510.782 282.025 510.573 281.857C510.371 281.683 510.019 281.596 509.517 281.596C509.036 281.596 508.677 281.679 508.44 281.847C508.203 282.014 508.085 282.289 508.085 282.673V282.715H506.966V282.673C506.966 282.275 507.07 281.923 507.279 281.617C507.489 281.303 507.788 281.056 508.179 280.874C508.576 280.693 509.05 280.602 509.601 280.602C510.151 280.602 510.601 280.697 510.95 280.885C511.305 281.066 511.566 281.317 511.734 281.638C511.908 281.958 511.995 282.328 511.995 282.746V285.904ZM508.607 286.008C508.071 286.008 507.642 285.89 507.321 285.653C507.008 285.409 506.851 285.074 506.851 284.649C506.851 284.377 506.917 284.151 507.049 283.969C507.189 283.781 507.384 283.635 507.635 283.53C507.886 283.426 508.182 283.352 508.524 283.311L510.991 283.049V283.718L508.848 283.959C508.555 283.994 508.335 284.057 508.189 284.147C508.05 284.231 507.98 284.374 507.98 284.576C507.98 284.785 508.053 284.942 508.2 285.046C508.353 285.144 508.59 285.193 508.911 285.193C509.308 285.193 509.653 285.144 509.946 285.046C510.239 284.942 510.469 284.781 510.636 284.565C510.803 284.349 510.887 284.07 510.887 283.729L511.033 283.75V284.607H510.887C510.747 285.046 510.479 285.391 510.082 285.642C509.691 285.886 509.2 286.008 508.607 286.008ZM514.133 285.904H513.003V278.898H514.133V285.904Z" fill="black"/>
<path d="M59.7244 330.79L39.9047 341.328L33.5882 263.96L58.856 250.524L119.559 298.975L99.2698 309.763L65.0061 281.353L55.2293 272.936L54.0082 273.585L55.6128 286.347L59.7244 330.79ZM96.1765 296.467L49.774 321.14L41.3333 305.265L87.7358 280.593L96.1765 296.467Z" fill="black"/>
<defs>
<filter id="filter0_f_45_452" x="203.035" y="108.421" width="313.025" height="318.499" filterUnits="userSpaceOnUse" color-interpolation-filters="sRGB">
<feFlood flood-opacity="0" result="BackgroundImageFix"/>
<feBlend mode="normal" in="SourceGraphic" in2="BackgroundImageFix" result="shape"/>
<feGaussianBlur stdDeviation="65.3521" result="effect1_foregroundBlur_45_452"/>
</filter>
<clipPath id="clip0_45_452">
<rect width="15.6845" height="15.6845" fill="white" transform="translate(333.96 135.324) rotate(-28)"/>
</clipPath>
<clipPath id="clip1_45_452">
<rect width="15.6845" height="15.6845" fill="white" transform="translate(98.5344 260.502) rotate(-28)"/>
</clipPath>
</defs>
</svg>
